<svg xmlns="http://www.w3.org/2000/svg" width="51" height="42" viewBox="0 0 51 42"><g><g><path fill="#686db1" d="M50.13 40.983c-.242.578-.699.746-1.294.746-15.848-.006-31.695-.006-47.543 0-.594 0-1.052-.167-1.293-.746v-.586c.32-.5.779-.64 1.364-.64 15.808.013 31.615.012 47.423.002.61 0 1.093.128 1.344.734v.49zM0 24.147c.678-.824 1.155-.849 1.926-.1 4.525 4.402 9.86 7.308 16.028 8.672.81.181 1.634.294 2.452.44.112.018.225.036.336.06.64.132.977.557.894 1.124-.08.551-.57.903-1.195.788-1.394-.248-2.8-.456-4.168-.812C10.228 32.757 4.976 29.772.515 25.4c-.183-.18-.344-.378-.515-.57v-.684zm50.13.684c-1.763 1.944-3.806 3.552-5.996 4.976-4.356 2.835-9.116 4.599-14.265 5.308-.795.11-1.285-.192-1.365-.809-.078-.6.334-1.028 1.128-1.134a32.575 32.575 0 0 0 8.318-2.278c3.798-1.602 7.164-3.86 10.128-6.721.187-.182.369-.378.587-.515.532-.33 1.057-.106 1.466.587v.586zM5.488 10.007c-.444 0-.819.015-1.192-.003-.927-.046-1.338-.766-.88-1.567C4.784 6.047 6.16 3.66 7.545 1.28c.46-.788 1.331-.784 1.795.011 1.387 2.379 2.764 4.764 4.133 7.154.441.77.03 1.506-.855 1.555-.402.022-.806.004-1.256.004v.592l-.001 7.487c0 .868-.34 1.216-1.215 1.221-1.159.008-2.318.011-3.476-.001-.835-.009-1.181-.371-1.182-1.209-.003-2.495-.001-4.99-.001-7.488v-.6zM8.441 3.64L5.919 8.01c1.394.14 1.526.29 1.526 1.628V17.31h1.958v-.572c0-2.379.023-4.762-.01-7.14-.015-1.081.223-1.61 1.43-1.567.024 0 .049-.036.107-.08L8.44 3.64zm36.217 6.367V18c0 .982-.307 1.301-1.274 1.306-1.11.006-2.219.006-3.328 0-.93-.005-1.271-.349-1.272-1.27-.002-2.48 0-4.96 0-7.437v-.59c-.416 0-.786.01-1.155-.002-.984-.033-1.405-.76-.92-1.606a1686.25 1686.25 0 0 1 4.082-7.07c.493-.85 1.353-.854 1.846-.007a1221.04 1221.04 0 0 1 4.104 7.113c.453.793.034 1.523-.885 1.567-.372.017-.747.003-1.198.003zm-2.942-6.368l-2.51 4.35c.13.034.175.052.22.056 1.11.071 1.316.29 1.316 1.407v7.335c0 .172.015.344.023.535H42.7v-.552-7.432c.001-.95.284-1.238 1.244-1.29.075-.006.149-.034.28-.06L41.716 3.64zM28.019 19.897c.442 0 .83-.012 1.216.001.884.027 1.323.76.885 1.53a903.749 903.749 0 0 1-4.156 7.188c-.46.79-1.326.774-1.79-.022a1473.43 1473.43 0 0 1-4.105-7.109c-.487-.847-.058-1.573.925-1.588.37-.007.741 0 1.15 0V19.3l.001-7.435c.001-.935.329-1.265 1.263-1.268 1.141-.002 2.282-.007 3.424.002.853.004 1.185.335 1.186 1.184.003 2.493.001 4.986.001 7.48v.634zm-2.94 6.35l2.5-4.329c-1.454-.258-1.518-.335-1.518-1.78v-7.042-.502h-1.958v.617c0 2.508.003 5.02-.003 7.53-.001.708-.327 1.048-1.026 1.107-.149.012-.298.024-.515.039.857 1.486 1.668 2.886 2.52 4.36zm-.992 8.236c-.005-.538.445-1.005.973-1.014.529-.007.984.45.988.993.004.546-.436 1.006-.968 1.013-.525.007-.989-.457-.993-.992z"/></g></g></svg>