<svg xmlns="http://www.w3.org/2000/svg" width="51" height="51" viewBox="0 0 51 51"><g><g><path fill="#686db1" d="M50.472 47.26v.97c-.334 1.215-1.111 1.986-2.326 2.325h-.968c-.353-.154-.703-.31-1.06-.454a.418.418 0 0 0-.266 0c-.337.142-.667.3-1 .454h-1.066c-.333-.152-.663-.31-1.003-.449a.474.474 0 0 0-.307.018c-.342.133-.677.284-1.015.43h-.969c-.352-.153-.702-.31-1.06-.453a.419.419 0 0 0-.265 0c-.338.143-.668.3-1 .454H37.1c-.334-.152-.663-.312-1.003-.449a.473.473 0 0 0-.307.018c-.342.134-.678.284-1.015.43h-.97c-.352-.153-.702-.311-1.058-.455a.42.42 0 0 0-.266.003c-.338.142-.668.3-1 .453h-1.067c-.333-.152-.663-.312-1.002-.45a.482.482 0 0 0-.307.02c-.342.133-.678.283-1.016.43h-.969c-.352-.154-.701-.312-1.058-.456a.42.42 0 0 0-.266.003c-.338.143-.668.3-1.001.453H23.73c-.333-.152-.664-.31-1.002-.452a.42.42 0 0 0-.266-.005c-.356.145-.706.303-1.057.457h-.97c-.351-.154-.7-.312-1.057-.457a.42.42 0 0 0-.266.005c-.338.142-.668.3-1.002.452h-1.065c-.023-.023-.043-.058-.07-.064-1.992-.455-2.77-2.717-1.793-4.236.05-.079.084-.232.042-.297-.487-.763-.547-1.586-.331-2.486-.816.192-1.568.192-2.255-.215-.261-.155-.437-.12-.694.01-1.08.542-2.128.445-3.085-.299-.883-.685-1.243-1.882-.93-2.962.11-.38.061-1.396.005-1.806-.075-.545-.07-1.101-.1-1.656-.719.182-1.466.16-2.157-.243-.236-.136-.4-.138-.645-.004-1.563.853-3.437.11-4.025-1.576-.041-.12-.095-.234-.143-.349v-1.065c.151-.332.312-.662.448-1 .035-.087.017-.214-.02-.308-.133-.342-.284-.679-.428-1.018v-.967c.144-.34.296-.675.43-1.019.035-.093.052-.22.018-.306-.136-.34-.297-.67-.448-1.002v-1.065c.152-.334.312-.664.449-1a.46.46 0 0 0-.021-.307c-.133-.342-.284-.681-.428-1.02v-.97c.145-.336.296-.673.43-1.015a.456.456 0 0 0 .017-.305c-.136-.342-.296-.67-.447-1.004v-1.065c.152-.333.313-.661.45-1 .034-.086.014-.213-.022-.307-.134-.342-.284-.677-.428-1.018v-.969c.145-.34.296-.675.43-1.015a.462.462 0 0 0 .017-.308c-.136-.338-.296-.668-.447-1.002v-1.065c.152-.333.31-.664.452-1.002a.384.384 0 0 0 .001-.265c-.142-.357-.3-.709-.453-1.058v-.97c.145-.338.297-.675.43-1.017a.458.458 0 0 0 .016-.306c-.135-.341-.295-.67-.446-1.002V6.566c.152-.333.31-.661.452-1a.386.386 0 0 0 .001-.266c-.142-.358-.3-.706-.453-1.06v-.968C1.199 2.056 1.974 1.28 3.189.944h.97c.352.153.702.31 1.059.453.077.032.19.033.265 0 .338-.14.668-.3 1-.453H7.55c.334.152.664.312 1.003.447.088.035.215.021.307-.018.343-.132.678-.281 1.016-.429h.969c.352.153.702.312 1.059.454.077.03.189.03.266-.001.337-.14.667-.3 1-.453h1.066c.333.152.663.312 1.003.447.087.036.214.02.306-.018.343-.133.678-.282 1.016-.429h.97c.351.153.701.312 1.058.454.077.032.189.03.266-.003.337-.14.668-.298 1-.45h1.066c.334.151.663.311 1.003.448a.454.454 0 0 0 .306-.02c.343-.133.678-.282 1.017-.429h.969c.352.155.701.312 1.058.454.077.032.189.03.266-.003.337-.14.668-.298 1-.45h1.067c.333.152.662.312 1.002.448.087.034.214.016.306-.02.343-.133.679-.282 1.017-.429h.969c.338.147.674.294 1.017.43.092.035.22.053.306.019.34-.136.669-.296 1.002-.449h1.066c.023.024.043.058.07.064 2 .46 2.766 2.728 1.791 4.238-.05.08-.081.23-.04.297.488.762.543 1.585.333 2.482.797-.185 1.537-.2 2.209.198.296.173.498.128.781-.01 1.011-.5 2.011-.43 2.925.233.935.678 1.397 1.672 1.078 2.754-.252.852-.303 1.566.02 2.39.155.397.026.907.026 1.369.79-.198 1.568-.138 2.31.295.11.064.33.022.46-.045 1.645-.87 3.529-.11 4.107 1.662.029.088.074.171.11.255v1.067c-.15.334-.309.664-.45.999a.39.39 0 0 0-.004.268c.142.356.302.705.455 1.06v.967c-.145.34-.296.673-.43 1.015-.036.094-.053.22-.018.308.136.338.296.668.448 1.001v1.066c-.152.332-.31.663-.451 1.001a.386.386 0 0 0-.004.267c.142.357.302.706.455 1.057v.971c-.145.337-.297.675-.43 1.016a.458.458 0 0 0-.018.306c.136.34.297.669.448 1.002v1.066c-.152.331-.31.662-.452 1a.386.386 0 0 0-.003.265c.143.36.302.708.455 1.06v.969c-.145.338-.297.673-.43 1.017a.46.46 0 0 0-.017.307c.136.34.296.668.447 1.002v1.067c-.152.332-.31.66-.452.997a.387.387 0 0 0-.002.266c.142.356.301.708.454 1.062v.968c-.145.337-.297.672-.43 1.016a.46.46 0 0 0-.017.307c.136.34.296.67.447 1.002v1.065c-.153.334-.311.664-.452 1a.387.387 0 0 0-.001.267c.142.356.3.706.453 1.06zM7.736 10.767c.08-2.188 2.333-3.545 4.244-2.518.219.117.368.156.607.022.914-.51 1.842-.488 2.778-.017.148.074.399.076.546.003.934-.475 1.85-.473 2.787-.01.151.074.4.087.547.014.951-.481 1.88-.487 2.828.009.135.07.37.069.506 0 .948-.496 1.878-.494 2.828-.006.137.069.372.079.506.008.965-.502 1.91-.5 2.87.011.122.065.34.061.464-.004.961-.509 1.907-.509 2.868.002a.58.58 0 0 0 .466.001 2.953 2.953 0 0 1 1.724-.364c.57.047.72-.08.791-.65.061-.487-.115-.875-.469-1.209-.47-.444-.466-.79-.021-1.235.629-.626.676-1.45.116-2.017-.566-.573-1.394-.534-2.016.092-.44.445-.799.446-1.238.007-.682-.685-1.424-.684-2.11.006-.435.434-.793.43-1.238-.017-.67-.676-1.425-.669-2.112.022-.42.421-.79.424-1.206.007-.716-.712-1.425-.712-2.142.003-.415.414-.785.41-1.206-.012-.686-.69-1.44-.696-2.112-.017-.443.444-.803.448-1.239.012-.684-.688-1.427-.688-2.11-.002-.438.438-.794.436-1.237-.01-.674-.677-1.43-.673-2.113.015-.433.436-.792.428-1.238-.02-.657-.664-1.425-.666-2.078-.006-.462.466-.804.465-1.27-.005-.648-.655-1.424-.65-2.08.012-.446.448-.805.455-1.24.018-.634-.636-1.435-.682-2.01-.113-.577.574-.54 1.382.094 2.011.444.44.444.802.002 1.238-.683.679-.682 1.432.003 2.114.44.436.438.793-.01 1.238-.665.658-.671 1.426-.016 2.079.47.465.472.809.007 1.268-.658.651-.659 1.427-.001 2.08.467.464.465.804-.005 1.27-.642.638-.65 1.419-.021 2.045.496.495.499.817.011 1.302-.634.631-.636 1.422-.006 2.05.493.49.493.81 0 1.3-.632.63-.628 1.412.01 2.047.487.486.482.8-.02 1.302-.61.609-.614 1.41-.01 2.019.52.523.521.813.005 1.331-.609.61-.607 1.402.005 2.015.512.512.509.803-.016 1.333-.568.574-.587 1.4-.046 1.95.536.546 1.385.536 1.952-.017.568-.557.81-.557 1.368-.007.427.42.994.54 1.512.324.247-.102.372-.226.316-.545-.114-.65.003-1.276.33-1.867.072-.132.061-.368-.01-.507-.485-.95-.487-1.88.007-2.829a.63.63 0 0 0 0-.505c-.494-.948-.49-1.876-.008-2.828.074-.147.06-.395-.015-.547-.463-.937-.464-1.854.012-2.786a.7.7 0 0 0-.006-.549c-.47-.935-.468-1.85 0-2.786a.699.699 0 0 0 .004-.547c-.472-.935-.475-1.85-.007-2.788.075-.15.087-.4.013-.546-.486-.952-.484-1.88.006-2.827.07-.137.047-.352.001-.51-.132-.457-.3-.904-.452-1.357zm31.57 4.61c.594-.39 1.212-.582 1.901-.512.621.063.88-.123.825-.753a2.067 2.067 0 0 0-.446-1.066c-.438-.534-.477-.829.013-1.316.589-.588.614-1.436.06-1.984-.553-.548-1.393-.513-1.982.083-.465.469-.816.47-1.273.01-.658-.663-1.426-.663-2.082-.002-.461.468-.795.462-1.27-.012-.637-.64-1.418-.643-2.049-.007-.487.49-.814.49-1.306-.003-.632-.633-1.413-.63-2.049.011-.47.473-.806.476-1.27.01-.655-.66-1.425-.657-2.08.007-.442.445-.81.45-1.242.019-.69-.693-1.434-.694-2.113-.01-.44.443-.795.442-1.238-.005-.666-.668-1.428-.676-2.081-.018-.464.469-.815.47-1.274.008-.656-.66-1.424-.66-2.081.003-.446.45-.803.456-1.238.018-.689-.689-1.43-.69-2.114-.004-.436.44-.8.438-1.24-.006-.614-.617-1.46-.655-2.016-.088-.545.556-.507 1.39.09 1.982.465.461.466.816.004 1.274-.661.657-.66 1.423.005 2.08.449.446.453.805.017 1.238-.691.688-.692 1.428-.003 2.116.437.434.435.799-.008 1.24-.664.66-.671 1.432-.018 2.08.47.467.471.807.004 1.272-.656.65-.652 1.423.01 2.08.459.456.454.805-.02 1.274-.636.633-.639 1.415-.006 2.047.492.493.49.806-.008 1.304-.614.613-.62 1.406-.013 2.016.515.518.516.828.004 1.339-.61.608-.607 1.4.005 2.017.5.5.504.817.016 1.301-.635.63-.636 1.414 0 2.049.486.484.484.815-.01 1.307-.585.582-.607 1.437-.05 1.982.545.534 1.383.507 1.95-.058.515-.513.825-.513 1.34 0 .448.447 1.022.563 1.55.33.24-.107.344-.244.294-.523a2.73 2.73 0 0 1 .376-1.95c.047-.078.068-.226.026-.297-.653-1.097-.578-2.174.073-3.228-.71-1.13-.692-2.24.002-3.333-.65-1.049-.715-2.095-.106-3.174.058-.1.018-.3-.045-.42-.497-.943-.495-1.874-.014-2.826a.693.693 0 0 0-.007-.543c-.468-.934-.494-1.864.02-2.774.135-.243.097-.388-.02-.602-.484-.907-.484-1.83.01-2.73.126-.228.127-.373 0-.602a2.786 2.786 0 0 1 .452-3.348c.892-.9 2.235-1.077 3.395-.478a.68.68 0 0 0 .54.002c.614-.311 1.254-.452 1.92-.298.4.093.775.42 1.162.42.385 0 .759-.329 1.159-.421.791-.182 1.525.047 2.18.465 1.053-.647 2.086-.707 3.149-.113.105.058.305.037.419-.025.959-.513 1.906-.512 2.869-.008.125.066.34.077.458.013.977-.521 1.937-.522 2.911.003.112.06.312.068.42.01 1.066-.592 2.098-.52 3.144.127zm-9.296 17.31c0 5.183 0 10.364.004 15.547 0 .185.002.405.097.548.205.303.863.375 1.31.229.426-.137.474-.432.474-.824-.01-7.394-.008-14.789-.005-22.184 0-.223 0-.456.06-.667.1-.359.375-.519.74-.488.366.034.59.247.638.615.023.175.013.355.013.531 0 7.41 0 14.822.004 22.23 0 .186.006.406.101.548.202.306.857.386 1.304.241.436-.139.51-.43.51-.852-.012-10.3-.01-20.6-.01-30.9 0-.67-.277-.949-.948-.957-.683-.007-.96.265-.96.94v3.486c0 .436.009.872-.006 1.308-.016.449-.272.718-.67.741-.412.025-.719-.25-.77-.698-.015-.13-.008-.258-.008-.387 0-1.535.002-3.07-.004-4.602 0-.153-.006-.335-.084-.458-.192-.297-.86-.4-1.307-.258-.415.13-.492.411-.491.813.012 5.168.008 10.333.008 15.499zm10.029.008v15.548c0 .584.31.861.947.853.632-.005.956-.298.956-.858.001-1.326-.005-2.647.003-3.973.004-.579.386-.92.886-.797.435.105.567.428.566.842-.003 1.34-.003 2.68.002 4.018.001.155.003.338.082.458.185.278.836.368 1.264.234.42-.127.552-.388.551-.826-.011-10.334-.008-20.667-.009-30.999 0-.598-.325-.894-.978-.892-.646 0-.913.256-.913.876v23.103c0 .752-.219 1.09-.71 1.102-.516.013-.743-.328-.743-1.114V17.166c0-.568-.314-.85-.951-.862-.65-.01-.953.258-.953.844v15.547zm-14.845.001c0-5.181 0-10.362-.004-15.546 0-.184-.009-.403-.106-.542-.212-.3-.87-.366-1.314-.217-.427.142-.464.448-.463.836.008 6.522.006 13.043.005 19.566 0 .208.006.42-.035.626-.078.382-.337.585-.727.568-.39-.015-.63-.233-.675-.626-.022-.193-.015-.388-.015-.58V17.118c-.001-.548-.311-.814-.94-.814-.62 0-.965.282-.965.796v31.188c0 .517.343.805.956.81.616.004.948-.276.948-.81l.001-7.117c0-.178-.006-.358.021-.532.055-.346.276-.543.62-.576.363-.036.64.117.747.473.059.196.062.414.062.622.004 2.357.002 4.714.003 7.072 0 .58.307.865.939.867.634.006.942-.271.942-.855V32.696zm1.453.032v15.544c0 .536.319.814.936.824.63.011.973-.281.973-.836v-4.164c0-8.974 0-17.947-.002-26.921 0-.173.01-.37-.067-.512-.165-.305-.838-.435-1.297-.298-.412.124-.555.37-.554.82.017 5.182.011 10.362.011 15.543zm-8.146.002c0-5.212-.006-10.427.011-15.64.002-.459-.206-.64-.582-.736a1.352 1.352 0 0 0-1.535.643c-.301.532-.203 1.182.248 1.643.557.569.559.811.01 1.369-.59.597-.576 1.407.033 2.017.501.5.5.799-.004 1.3-.61.608-.618 1.414-.02 2.016.53.535.533.808.008 1.334-.6.602-.6 1.413-.002 2.019.526.528.525.801-.005 1.334-.585.585-.592 1.395-.018 1.98.556.568.557.81.007 1.369-.576.585-.576 1.397 0 1.985.55.56.55.8-.007 1.367-.56.569-.567 1.377-.017 1.946.58.602.58.81.005 1.402-.551.57-.55 1.381.002 1.952.574.595.573.8-.008 1.4-.524.54-.544 1.332-.048 1.881.646.714.646.79.003 1.504a1.36 1.36 0 0 0-.214 1.532c.256.506.805.807 1.357.745.584-.069.776-.28.776-.864V32.73zm28.241-.019v8.573c0 2.34.01 4.681-.009 7.023-.003.418.156.618.533.728a1.367 1.367 0 0 0 1.55-.597c.334-.555.247-1.2-.228-1.682-.544-.553-.545-.82-.006-1.369.582-.59.583-1.39.002-1.983-.542-.551-.541-.81.003-1.367.568-.58.577-1.37.021-1.947-.57-.592-.572-.822-.012-1.402.562-.58.565-1.368.008-1.948-.567-.59-.568-.817-.002-1.4.56-.579.556-1.372-.008-1.949-.548-.557-.551-.823-.017-1.366.586-.594.59-1.392.012-1.984-.545-.559-.546-.82-.007-1.367.585-.595.584-1.387-.003-1.98-.537-.542-.535-.805.012-1.366.565-.581.572-1.373.018-1.953-.58-.607-.578-.796.021-1.435.517-.551.519-1.323.003-1.877-.612-.653-.611-.794.007-1.47.412-.451.491-1.039.211-1.567a1.336 1.336 0 0 0-1.373-.705c-.575.073-.736.256-.736.843V32.71zm-10.038-.033c0 5.182 0 10.362.002 15.546 0 .174-.017.371.051.522.119.263.8.42 1.202.307.407-.113.64-.303.639-.808-.016-10.365-.012-20.73-.013-31.094 0-.568-.323-.851-.963-.848-.629.004-.918.262-.918.826v15.549zm-23.791-9.213a.7.7 0 0 1-.777.67.698.698 0 0 1-.65-.751.698.698 0 0 1 .778-.67c.393.032.67.351.649.751zm0-11.088a.695.695 0 0 1-.688.714.698.698 0 0 1-.739-.71.697.697 0 0 1 .736-.714c.397.01.69.311.69.71zm2.45-.038a.698.698 0 0 1 .776-.67c.393.032.67.35.65.75a.696.696 0 0 1-.73.672.699.699 0 0 1-.697-.752zm5.301.016a.7.7 0 0 1-.665.736.7.7 0 0 1-.761-.688.697.697 0 0 1 .713-.736c.398 0 .701.292.713.688zm3.876.064a.699.699 0 0 1-.778.669.698.698 0 0 1-.649-.75.698.698 0 0 1 .777-.669c.394.032.67.35.65.75zm3.173.672a.697.697 0 0 1-.724-.723.695.695 0 0 1 .702-.701.697.697 0 0 1 .724.725.695.695 0 0 1-.702.699zm4.578-.71a.698.698 0 0 1-.74.71.696.696 0 0 1-.686-.714.697.697 0 0 1 .74-.71.696.696 0 0 1 .686.714zm3.875.011a.698.698 0 0 1-.75.699.696.696 0 0 1-.676-.725.698.698 0 0 1 .75-.7.696.696 0 0 1 .676.726zm3.187-.725c.396.012.69.314.69.712 0 .415-.321.725-.738.712a.697.697 0 0 1-.688-.76.697.697 0 0 1 .736-.664zm-26.44 4.383a.699.699 0 0 1-.679.725.701.701 0 0 1-.748-.704.695.695 0 0 1 .727-.722.693.693 0 0 1 .7.701zm0 22.08a.697.697 0 0 1-.667.734.7.7 0 0 1-.76-.69.697.697 0 0 1 .716-.734c.397.001.7.294.71.69zm0-3.676a.698.698 0 0 1-.673.728.7.7 0 0 1-.754-.696.697.697 0 0 1 .721-.729c.398.003.697.3.706.697zm-.73-4.38a.699.699 0 0 1 .73.72.694.694 0 0 1-.696.706.696.696 0 0 1-.73-.72.696.696 0 0 1 .695-.706zm-.697-10.37a.698.698 0 0 1 .777-.67c.394.031.67.348.65.747a.7.7 0 0 1-.729.675.701.701 0 0 1-.698-.752zm1.427 7.418a.7.7 0 0 1-.753.696.699.699 0 0 1-.674-.728.698.698 0 0 1 .753-.696c.395.02.682.33.674.728z"/></g></g></svg>