<svg xmlns="http://www.w3.org/2000/svg" width="30" height="30" viewBox="0 0 30 30"><g><g><path fill="#fff" d="M29.316 15.234c0 8.086-6.577 14.665-14.662 14.665S-.01 23.319-.01 15.234C-.009 7.15 6.57.571 14.654.571s14.662 6.58 14.662 14.663zm-1.465 0c0-7.277-5.92-13.196-13.197-13.196-7.278 0-13.198 5.92-13.198 13.196 0 7.277 5.92 13.2 13.198 13.2 7.277 0 13.197-5.923 13.197-13.2zm-6.1 0a.728.728 0 0 1-.215.522l-4.12 4.12a.731.731 0 1 1-1.035-1.036l2.871-2.869H8.285a.737.737 0 0 1 0-1.472h10.973l-2.87-2.87a.73.73 0 0 1 0-1.035.727.727 0 0 1 1.034 0l4.12 4.12c.144.145.21.329.21.52z"/></g></g></svg>