<svg xmlns="http://www.w3.org/2000/svg" width="21" height="21" viewBox="0 0 21 21"><g><g><path fill="#686db1" d="M14.617 7.714a.78.78 0 0 1 0 1.105l-5.256 5.256a.783.783 0 0 1-1.107 0l-2.502-2.502a.781.781 0 0 1 0-1.106.78.78 0 0 1 1.107 0l1.948 1.947 4.702-4.7a.78.78 0 0 1 1.108 0zm5.438 3.258A10.023 10.023 0 0 1 10.028 21 10.022 10.022 0 0 1 0 10.972 10.022 10.022 0 0 1 10.028.945a10.022 10.022 0 0 1 10.027 10.027zm-1.567 0a8.455 8.455 0 0 0-8.46-8.46 8.456 8.456 0 0 0-8.461 8.46 8.457 8.457 0 0 0 8.46 8.46 8.456 8.456 0 0 0 8.461-8.46z"/></g></g></svg>