<svg xmlns="http://www.w3.org/2000/svg" width="50" height="50" viewBox="0 0 50 50"><g><g><g><path fill="#f7fbfb" d="M25 0c13.807 0 25 11.193 25 25 0 13.808-11.193 25-25 25S0 38.808 0 25C0 11.194 11.193 0 25 0z"/></g><g><path fill="#171717" d="M35.305 30.186a5.723 5.723 0 0 1-2.696 3.502l-2.032 1.164a5.767 5.767 0 0 1-4.402.573l-9.61-2.573a1.58 1.58 0 0 1-1.121-1.932 2.357 2.357 0 0 1 2.55-1.718l4.289.461-5.088-8.77a2 2 0 0 1 .735-2.74 2.024 2.024 0 0 1 2.76.734l1.325 2.28a2.028 2.028 0 0 1 3.32-.175 2.026 2.026 0 0 1 3.33-.195c.168-.286.41-.532.718-.707a2.025 2.025 0 0 1 2.76.733l2.71 5.22a5.748 5.748 0 0 1 .452 4.143zm-1.02-.276a4.701 4.701 0 0 0-.369-3.386l-2.697-5.199a.962.962 0 0 0-1.3-.33.95.95 0 0 0-.357 1.31l.032.055a.525.525 0 0 1-.192.719.53.53 0 0 1-.713-.18v-.001h-.002v-.001l-.001-.003v-.002h-.002l-.783-1.349a.966.966 0 0 0-1.312-.352.955.955 0 0 0-.357 1.31l.78 1.344a.522.522 0 0 1-.192.718.53.53 0 0 1-.721-.193l-1.528-2.632a.967.967 0 0 0-1.311-.352.958.958 0 0 0-.358 1.312l1.527 2.63a.523.523 0 0 1-.192.719.53.53 0 0 1-.72-.193l-3.74-6.444a.964.964 0 0 0-1.67.959l5.608 9.664c.1.17.094.383-.013.55a.53.53 0 0 1-.498.234l-5.326-.57a1.302 1.302 0 0 0-1.415.946.527.527 0 0 0 .374.645l9.61 2.573a4.715 4.715 0 0 0 3.602-.47l2.031-1.164a4.68 4.68 0 0 0 2.205-2.867zM23.187 19.741a.527.527 0 0 1-.606-.436 3.702 3.702 0 0 0-2.685-2.965c-1.967-.526-3.994.637-4.519 2.597a3.683 3.683 0 0 0 1.239 3.797.527.527 0 0 1 .075.74.53.53 0 0 1-.545.172.52.52 0 0 1-.198-.098 4.743 4.743 0 0 1-1.59-4.886c.675-2.515 3.282-4.014 5.81-3.336a4.76 4.76 0 0 1 3.454 3.81.525.525 0 0 1-.435.605z"/></g></g></g></svg>