<svg xmlns="http://www.w3.org/2000/svg" width="36" height="36" viewBox="0 0 36 36"><g><g><g><path fill="#686db1" d="M18 0c9.941 0 18 8.059 18 18 0 9.942-8.059 18-18 18S0 27.942 0 18C0 8.06 8.059 0 18 0z"/></g><g><path fill="#fff" d="M25.944 21.37a4.278 4.278 0 0 1-2.012 2.614l-1.515.87a4.31 4.31 0 0 1-3.285.426l-7.17-1.92a1.183 1.183 0 0 1-.837-1.443 1.759 1.759 0 0 1 1.903-1.281l3.2.343-3.796-6.543a1.49 1.49 0 0 1 .548-2.043 1.51 1.51 0 0 1 2.06.545l.988 1.703a1.513 1.513 0 0 1 2.477-.131c.127-.213.308-.395.536-.528a1.516 1.516 0 0 1 1.949.38 1.51 1.51 0 0 1 2.596.022l2.02 3.894c.496.956.616 2.053.338 3.092zm-.76-.204a3.506 3.506 0 0 0-.276-2.527l-2.012-3.881a.719.719 0 0 0-.97-.246.71.71 0 0 0-.267.977l.025.041a.39.39 0 0 1-.144.536.392.392 0 0 1-.532-.134h-.001v-.001l-.001-.002v-.001h-.002l-.584-1.006a.718.718 0 0 0-1.246.713l.582 1.002a.395.395 0 0 1-.143.538.396.396 0 0 1-.538-.145l-1.14-1.963a.72.72 0 0 0-.978-.262.712.712 0 0 0-.267.977l1.139 1.963a.393.393 0 0 1-.143.537.396.396 0 0 1-.538-.145l-2.79-4.807a.715.715 0 0 0-.979-.262.712.712 0 0 0-.266.976l4.184 7.213a.389.389 0 0 1-.382.583l-3.974-.425a.973.973 0 0 0-1.056.707.395.395 0 0 0 .28.481l7.17 1.92a3.518 3.518 0 0 0 2.688-.35l1.515-.87a3.49 3.49 0 0 0 1.646-2.137zm-8.281-7.59a.392.392 0 0 1-.452-.325 2.753 2.753 0 0 0-5.375-.275 2.748 2.748 0 0 0 .923 2.833.392.392 0 1 1-.498.607 3.536 3.536 0 0 1-1.186-3.642c.503-1.88 2.448-2.997 4.335-2.492a3.552 3.552 0 0 1 2.577 2.843.393.393 0 0 1-.324.452z"/></g></g></g></svg>