<svg xmlns="http://www.w3.org/2000/svg" width="47" height="46" viewBox="0 0 47 46"><g><g><path fill="#686db1" d="M5.377.048c.222.17.465.319.663.513 1.153 1.14 2.309 2.278 3.431 3.447.215.225.37.58.398.889.035.375-.228.66-.6.799-.397.149-.737.034-1.022-.245-.596-.582-1.18-1.177-1.77-1.763-.101-.102-.209-.197-.359-.338V40h36.696l-1.89-1.867c-.115-.114-.239-.225-.34-.353-.322-.41-.285-.945.08-1.293a.923.923 0 0 1 1.259-.023c.367.324.703.683 1.05 1.03.853.852 1.71 1.7 2.553 2.557.205.211.367.461.549.694v.536c-.24.274-.47.561-.725.822-.777.79-1.56 1.574-2.352 2.351-.45.44-.923.861-1.386 1.289h-.535c-.873-.491-.958-1.098-.249-1.812l1.702-1.704c.073-.074.126-.167.198-.263H6.09c0 .866-.022 1.7.007 2.53.021.587-.174 1.009-.721 1.249h-.536c-.506-.283-.68-.713-.655-1.287.034-.824.008-1.65.008-2.53-.879 0-1.704-.024-2.527.01-.576.026-1.004-.15-1.288-.655v-.536c.238-.549.661-.742 1.25-.721.84.029 1.683.008 2.54.008V3.35c-.157.146-.265.239-.366.338-.537.534-1.071 1.072-1.61 1.607C1.483 6.002.88 5.92.38 5.047v-.535c.221-.254.431-.518.666-.756.715-.726 1.435-1.45 2.163-2.164.536-.524 1.088-1.03 1.633-1.544h.536zm6.426 20.883V13.57c0-.694.166-.918.8-1.16 3.95-1.515 7.9-3.028 11.843-4.557.457-.176.867-.2 1.33-.022 3.999 1.55 8.004 3.083 12.008 4.623.472.182.697.517.696 1.026l-.014 14.72c0 .93-.127 1.112-1 1.45-3.96 1.526-7.92 3.056-11.886 4.564a1.309 1.309 0 0 1-.853.013c-4.023-1.53-8.037-3.084-12.053-4.634-.722-.277-.87-.49-.87-1.257l-.001-7.405zm1.92-6.162c-.011.131-.022.203-.022.276-.001 4.193.002 8.386-.009 12.58 0 .29.133.376.362.462 3.23 1.237 6.456 2.483 9.684 3.725.13.051.268.082.423.128.012-.133.024-.207.024-.281.001-4.178-.002-8.357.009-12.537 0-.287-.124-.382-.356-.47-1.388-.526-2.772-1.061-4.157-1.594l-5.958-2.289zm22.824.034c-.142.04-.243.06-.336.097-3.27 1.257-6.537 2.517-9.81 3.763-.29.11-.323.272-.322.532.006 4.119.004 8.235.005 12.354 0 .124.014.25.024.408.177-.06.318-.1.454-.153 3.185-1.224 6.369-2.455 9.558-3.669.33-.123.438-.281.437-.642-.015-4.071-.01-8.144-.01-12.216v-.474zm-1.754-1.401c-.09-.064-.123-.1-.162-.114-3.074-1.182-6.146-2.369-9.225-3.537a.896.896 0 0 0-.588.019c-2.441.924-4.878 1.86-7.314 2.795-.67.258-1.337.523-2.082.813 2.97 1.144 5.857 2.23 8.72 3.374.696.278 1.275.285 1.976.007 2.862-1.148 5.75-2.234 8.675-3.357z"/></g></g></svg>