<svg xmlns="http://www.w3.org/2000/svg" width="46" height="46" viewBox="0 0 46 46"><g><g><path fill="#686db1" d="M23.232.073c2.046 1.073 4.091 2.145 6.137 3.22.463.243.932.474 1.389.727.516.286.684.78.442 1.24-.24.458-.75.608-1.273.338a875.012 875.012 0 0 1-6.59-3.433c-.269-.142-.476-.137-.744.001-6.456 3.37-12.917 6.73-19.377 10.093-.09.047-.176.1-.329.19.185.103.32.183.458.256 6.42 3.339 12.843 6.678 19.26 10.027.252.13.447.143.703.01 6.456-3.37 12.917-6.731 19.376-10.095.1-.053.197-.113.361-.207-.594-.313-1.128-.599-1.664-.878-1.363-.712-2.736-1.403-4.083-2.144-.256-.14-.533-.45-.574-.716-.04-.263.143-.633.344-.843.27-.284.66-.22 1.002-.043l3.416 1.777c1.191.621 2.39 1.228 3.568 1.873.324.178.583.474.872.716v.54c-.291.24-.551.539-.878.711-2.586 1.366-5.184 2.709-7.778 4.057-.136.072-.266.154-.442.255.19.106.316.182.446.251 2.594 1.348 5.192 2.692 7.777 4.058.327.171.585.472.875.714v.538c-.29.241-.548.543-.875.714-2.598 1.376-5.21 2.726-7.816 4.08-.125.067-.244.143-.406.24.185.103.311.177.441.245 2.594 1.346 5.193 2.692 7.778 4.056.327.173.587.47.878.712v.538c-.275.236-.518.534-.83.699-5.118 2.68-10.246 5.338-15.368 8.007-2.168 1.128-4.33 2.268-6.496 3.404h-.538c-.033-.028-.06-.065-.098-.085-7.269-3.78-14.54-7.555-21.803-11.35-.3-.154-.53-.447-.793-.675v-.538c.278-.234.526-.524.84-.688 2.6-1.373 5.212-2.722 7.82-4.079.137-.073.27-.15.455-.254-.201-.113-.328-.186-.458-.255-2.595-1.35-5.194-2.692-7.78-4.06-.327-.17-.586-.471-.877-.711v-.538c.29-.24.55-.54.876-.712 2.587-1.366 5.186-2.709 7.781-4.057.138-.074.272-.152.46-.255-.2-.113-.326-.188-.456-.254-2.595-1.35-5.194-2.693-7.781-4.062-.327-.17-.588-.468-.88-.707v-.54c.25-.219.468-.501.755-.649C6.017 8.777 11.29 6.039 16.557 3.296 18.606 2.228 20.65 1.15 22.694.073h.538zm19.826 33.563c-.218-.124-.345-.198-.475-.266-2.45-1.274-4.902-2.543-7.346-3.832-.283-.147-.492-.15-.777 0-3.597 1.882-7.204 3.746-10.8 5.631-.485.255-.892.26-1.384.002-3.607-1.896-7.227-3.767-10.84-5.65-.227-.124-.41-.155-.658-.023-2.497 1.31-5.002 2.61-7.504 3.91-.113.061-.22.133-.37.227.146.081.243.143.345.199 6.421 3.34 12.845 6.678 19.26 10.03.353.185.607.162.944-.013 5.211-2.725 10.43-5.438 15.646-8.152 1.295-.675 2.588-1.35 3.96-2.063zm-23.673-2.003c1.196.625 2.3 1.215 3.42 1.771.121.062.347-.006.49-.08 6.478-3.364 12.951-6.733 19.425-10.105.095-.05.18-.119.307-.206-1.1-.572-2.15-1.108-3.185-1.672-.285-.155-.497-.14-.777.008-4.468 2.342-8.942 4.672-13.413 7.008-2.063 1.076-4.124 2.157-6.267 3.276zm18.128-11.49c-.815-.426-1.56-.8-2.292-1.204-.26-.142-.465-.15-.737-.007-3.62 1.896-7.25 3.776-10.873 5.67-.397.206-.783.314-1.18.048-.245-.166-.448-.125-.694.005-1.53.81-3.066 1.608-4.601 2.407-1.065.554-2.131 1.106-3.247 1.687.155.092.252.159.354.211.939.49 1.886.963 2.815 1.474.287.157.5.135.78-.011 5.246-2.747 10.498-5.485 15.749-8.227 1.28-.667 2.56-1.34 3.926-2.053zm-22.867.46c-1.179-.612-2.26-1.184-3.354-1.73-.135-.065-.375-.021-.523.056-2.508 1.29-5.01 2.597-7.511 3.9-.11.056-.211.132-.366.226 1.162.604 2.254 1.188 3.36 1.74.122.057.346-.009.489-.08 1.726-.89 3.447-1.787 5.168-2.683.884-.46 1.766-.923 2.737-1.43zm-6.284 5.295c1.13.59 2.175 1.126 3.21 1.684.253.138.448.125.7-.009 2.495-1.309 4.997-2.607 7.496-3.91.105-.054.202-.125.341-.215-.803-.418-1.587-.74-2.271-1.207-.854-.581-1.562-.534-2.463-.028-2.271 1.28-4.612 2.435-7.013 3.685zM34.885 6.704a.91.91 0 0 1-.88.898.901.901 0 0 1-.905-.913.895.895 0 0 1 .897-.872.906.906 0 0 1 .888.887z"/></g></g></svg>