<svg xmlns="http://www.w3.org/2000/svg" width="51" height="46" viewBox="0 0 51 46"><g><g><path fill="#686db1" d="M4.073 28.222c-.802 0-1.525.004-2.248-.002-.665-.005-.96-.295-.965-.95-.007-.994-.009-1.989 0-2.978.006-.603.306-.896.901-.916.118-.006.236-.002.354-.002 15.877 0 31.754 0 47.63.002 1.077 0 1.275.193 1.275 1.251 0 .843.002 1.684 0 2.525-.003.796-.268 1.067-1.053 1.07-1.011.002-2.024.03-3.033-.009-.975-.036-1.901.097-2.811.458-.734.293-1.503.493-2.244.766-.208.08-.372.273-.557.416.193.133.368.317.581.391.903.326 1.817.614 2.726.92.991.336 1.53 1.005 1.534 1.9.003.892-.532 1.574-1.52 1.905-.955.323-1.92.623-2.87.963-.175.062-.302.256-.45.392.146.117.276.287.444.346.887.317 1.77.665 2.682.886 1.57.375 2.406 2.099.949 3.57.197.009.355.024.514.024 1.382 0 2.764-.004 4.146.002.661.002.955.296.96.957.007.96.006 1.92.001 2.877-.003.726-.286 1.011-1.01 1.011-2.428.005-4.855.002-7.282.002H2.125c-1.068 0-1.267-.199-1.267-1.26 0-.876-.005-1.75.001-2.626.006-.665.3-1.006.955-.952 1.585.134 3.069-.218 4.522-.797.39-.156.807-.246 1.191-.41.222-.098.404-.287.604-.433-.192-.136-.366-.322-.58-.4-.981-.348-1.978-.657-2.962-1.004-.73-.258-1.165-.798-1.276-1.556-.106-.722.155-1.334.737-1.772.236-.179.527-.298.81-.396.938-.325 1.887-.616 2.821-.948.175-.063.301-.26.45-.396-.146-.12-.274-.29-.442-.35-.887-.316-1.784-.603-2.678-.904-1.865-.623-2.26-2.014-.938-3.573zM2.488 44.34h46.88v-1.538H2.488v1.538zm.01-17.771h46.88v-1.553H2.497v1.553zm8.884 1.806c-.037-.068-.074-.135-.112-.2-.835.05-1.698-.011-2.5.179-1.159.272-2.277.716-3.403 1.115-.175.062-.303.257-.453.389.146.119.275.29.443.35.983.343 1.979.656 2.965.997.916.316 1.432 1.001 1.432 1.864 0 .864-.516 1.55-1.43 1.865-.97.334-1.95.64-2.918.984-.184.064-.33.236-.492.362.165.139.308.339.499.407 1.013.362 2.049.665 3.057 1.037 1.348.502 1.706 2.075.744 3.138-.07.076-.13.163-.26.325.907-.038 1.74.042 2.509-.139 1.19-.283 2.34-.735 3.5-1.14.174-.062.3-.259.45-.394-.146-.122-.274-.293-.441-.352-.952-.334-1.915-.639-2.872-.958-.985-.33-1.527-1.011-1.528-1.9 0-.891.542-1.574 1.526-1.904.94-.316 1.888-.614 2.823-.942.184-.064.329-.242.492-.366-.165-.14-.307-.34-.497-.408-1.014-.363-2.049-.664-3.058-1.036-1.348-.501-1.71-2.074-.741-3.133.063-.069.175-.093.265-.14zm4.874 12.643l.074.08c.786 0 1.604.14 2.35-.03 1.224-.282 2.405-.755 3.596-1.17.162-.056.278-.244.415-.372-.141-.123-.263-.302-.428-.36-.951-.335-1.914-.639-2.87-.959-.994-.33-1.535-.997-1.542-1.889-.007-.91.545-1.59 1.559-1.927.893-.298 1.792-.581 2.676-.903.224-.081.405-.284.605-.429-.192-.136-.365-.324-.579-.401-.965-.345-1.948-.642-2.912-.99-1.414-.512-1.79-2.082-.779-3.183.061-.063.118-.132.281-.323-.995.064-1.87.01-2.687.2-1.141.27-2.243.708-3.353 1.1-.178.063-.312.25-.467.38.158.13.297.311.478.376.982.348 1.978.66 2.963 1 .887.31 1.393.991 1.4 1.836.007.865-.508 1.56-1.417 1.877-.953.329-1.917.627-2.867.97-.208.075-.372.272-.557.413.177.128.335.313.533.384.998.353 2.015.655 3.009 1.022 1.375.508 1.73 2.085.731 3.163-.055.057-.14.09-.212.135zm9.589-12.842c-.847.05-1.72-.005-2.534.184-1.141.264-2.243.706-3.354 1.098-.18.065-.32.244-.48.371.153.131.286.32.463.384.951.336 1.915.637 2.87.96.978.33 1.517 1.022 1.508 1.916-.01.875-.54 1.55-1.496 1.873-.956.324-1.92.625-2.871.96-.18.064-.317.247-.474.378.155.129.29.316.47.38 1.013.357 2.047.666 3.057 1.036 1.38.504 1.747 2.082.759 3.157l-.301.319c.96-.046 1.801.033 2.581-.15 1.175-.277 2.309-.727 3.452-1.123.181-.063.32-.25.478-.376-.153-.134-.284-.323-.462-.388-.918-.327-1.848-.62-2.774-.929-1.065-.351-1.613-1.018-1.604-1.944.009-.906.558-1.559 1.593-1.9.942-.312 1.887-.614 2.822-.943.164-.058.284-.24.425-.365-.139-.124-.257-.307-.42-.365-.918-.33-1.846-.63-2.772-.937-1.782-.588-2.185-2.103-.936-3.596zm7.28.008c-.816.042-1.659-.033-2.44.152-1.19.284-2.34.738-3.5 1.143-.163.056-.285.233-.426.357.14.121.259.303.422.361.967.341 1.946.649 2.918.977.956.325 1.49.998 1.5 1.871.011.894-.525 1.59-1.502 1.918-.971.33-1.951.636-2.919.98-.162.054-.28.237-.42.363.142.123.264.3.429.357.95.337 1.914.64 2.87.965 1.669.567 2.05 2.118.843 3.397-.016.016-.008.058-.008.059.798 0 1.63.138 2.39-.035 1.21-.269 2.373-.74 3.549-1.148.164-.057.283-.241.424-.365-.14-.126-.257-.31-.42-.367-.952-.335-1.914-.64-2.871-.96-1.016-.336-1.56-1.022-1.55-1.932.012-.889.56-1.555 1.55-1.884.959-.317 1.92-.62 2.871-.959.163-.056.281-.241.42-.367-.141-.124-.262-.303-.426-.36-.919-.328-1.83-.698-2.776-.921-1.536-.367-2.295-2.2-.928-3.602zm4.958 12.821l.097.177c.803-.033 1.634.048 2.402-.133 1.19-.28 2.341-.735 3.5-1.138.175-.062.304-.258.454-.394-.16-.127-.302-.305-.485-.37-.92-.325-1.849-.62-2.774-.929-1.033-.34-1.578-1.003-1.58-1.91-.004-.909.548-1.582 1.567-1.922.91-.3 1.824-.589 2.725-.914.206-.076.366-.28.547-.423-.179-.13-.34-.307-.54-.379-.998-.355-2.016-.654-3.008-1.021-1.35-.502-1.712-2.072-.751-3.135.07-.076.134-.16.286-.346-.96.058-1.821-.004-2.623.186-1.158.27-2.276.716-3.402 1.112-.176.062-.306.255-.457.388.16.124.303.302.486.367.967.342 1.947.647 2.917.98.917.317 1.434 1 1.437 1.864.003.863-.513 1.553-1.426 1.868-.97.334-1.95.637-2.916.985-.19.065-.334.268-.498.407.163.121.308.297.492.362 1.015.357 2.049.663 3.058 1.036 1.35.5 1.716 2.072.75 3.13-.064.068-.17.103-.258.152zM25.888 21.76H2.071c-.997 0-1.141-.223-1.228-1.212-.182-2.057.342-3.903 1.222-5.76C4.14 10.414 6.078 5.975 8.05 1.553 8.314.96 8.678.74 9.327.74c11.074.016 22.148.016 33.222 0 .65 0 1.014.22 1.28.813 2.31 5.171 4.648 10.333 6.963 15.502.139.31.206.675.218 1.017.03.858.011 1.715.01 2.575-.002.858-.254 1.11-1.113 1.11-8.006.002-16.013.002-24.019.002zM2.953 16.887h45.959c-.054-.155-.087-.28-.14-.398C46.71 11.91 44.64 7.33 42.59 2.745c-.147-.328-.336-.383-.652-.383-10.665.006-21.33.006-31.995-.002-.353-.003-.528.102-.673.428-2.03 4.54-4.076 9.075-6.117 13.61-.067.148-.123.301-.2.489zm46.426 1.675H2.517v1.553H49.38v-1.553zM25.157 4.006h1.555v1.56h-1.555v-1.56zm6.47 1.562V4.023h1.56v1.545h-1.56zm6.466-.01V4.014h1.573v1.542h-1.573zM10.602 7.238h1.556V8.79h-1.556V7.24zm8.825 1.573h-1.549v-1.57h1.55v1.57zm7.293-.004h-1.553v-1.56h1.553v1.56zm5.71-.018V7.246h1.573V8.79H32.43zm7.303-1.558h1.547v1.57h-1.547v-1.57zm-29.207 4.813H8.98v-1.57h1.546v1.57zm6.537-.011v-1.551h1.562v1.55h-1.562zm1.605-6.478V4.023h1.573v1.533h-1.573zm16.144 6.485h-1.555v-1.56h1.555v1.56zm8.09 0h-1.555v-1.56h1.555v1.56zM7.35 15.256v-1.547h1.574v1.547H7.349zm8.892-.003v-1.536h1.573v1.536h-1.573zm8.931-1.562h1.538v1.569h-1.538V13.69zm8.885.011h1.555v1.56h-1.555v-1.56zm8.9.001h1.553v1.558h-1.552v-1.558zM13.78 4.012v1.55h-1.561v-1.55h1.56zm12.949 6.472v1.55h-1.574v-1.55h1.574z"/></g></g></svg>