<svg xmlns="http://www.w3.org/2000/svg" width="44" height="45" viewBox="0 0 44 45"><g><g><path d="M0 32.826V3.338c.21-.747.47-1.491 1.133-1.945.493-.335 1.075-.54 1.618-.806h31.122c.301.22.483.486.351.878-.133.393-.455.426-.802.414-.1-.004-.201 0-.301 0H3.677c-.158 0-.315-.003-.473.001-.93.03-1.738.63-1.847 1.547-.1.84-.021 1.702-.021 2.552h41.392c0-.707.003-1.38 0-2.05-.008-1.235-.816-2.042-2.05-2.05a224.967 224.967 0 0 0-3.052.001c-.357.006-.67-.05-.791-.435-.125-.396.067-.66.39-.858h4.041c.785.204 1.537.504 2.003 1.196.318.472.504 1.034.749 1.555v29.404c-.056.158-.114.317-.166.477-.401 1.219-1.513 2.12-2.755 2.193-.613.034-1.23.016-1.846.025-.103.002-.205.02-.403.042.195.176.323.285.447.402.859.799 1.731 1.588 2.562 2.414.155.155.224.487.19.718-.045.316-.335.437-.654.429-.144-.004-.287-.01-.43-.015-1.987-.084-3.975-.163-5.963-.262-.3-.014-.497.06-.695.295a569.931 569.931 0 0 1-3.895 4.58c-.174.204-.384.379-.578.565h-.43c-.343-.229-.427-.554-.425-.956.01-2.533 0-5.067-.002-7.601v-.52h-.581c-8.302 0-16.603-.003-24.905.005-1.364.001-2.41-.535-3.096-1.715-.177-.305-.265-.66-.393-.992zm19.397-7.001H15.02c-.172 0-.346.005-.514-.024-.355-.055-.513-.29-.507-.634.006-.347.173-.573.531-.614.17-.02.343-.015.515-.015 7.236-.002 14.472 0 21.708-.002 1.063 0 1.556-.491 1.558-1.547.003-2.12.003-4.241 0-6.362-.002-1.042-.487-1.535-1.518-1.535-9.973-.003-19.945-.003-29.918 0-1.032 0-1.526.496-1.527 1.527-.002 2.107-.002 4.212 0 6.32 0 1.11.483 1.596 1.595 1.597 1.39.003 2.78-.005 4.17.006.463.005.684.238.678.65-.007.389-.226.625-.663.626-1.533.008-3.067.041-4.598-.017-1.432-.053-2.451-1.14-2.465-2.58-.023-2.278-.02-4.556 0-6.835.01-1.24.795-2.219 1.967-2.503.315-.076.653-.08.98-.08 5.789-.006 11.577-.007 17.366.005.357 0 .52-.113.662-.437.824-1.87 1.675-3.732 2.515-5.597.062-.139.114-.282.176-.437H1.291v.371c0 8.124 0 16.25.002 24.374 0 1.28.8 2.06 2.117 2.063 3.955.004 7.91-.003 11.864.008.309 0 .446-.105.568-.38 1.112-2.494 2.24-4.986 3.363-7.475.057-.128.105-.26.192-.473zm6.859-12.026h.586c3.338 0 6.676-.007 10.015.004 1.637.004 2.723 1.053 2.738 2.663.022 2.234.009 4.47.004 6.703-.002.8-.289 1.483-.896 2.016-.57.505-1.253.647-1.994.645-5.143-.008-10.287.002-15.43-.012-.34-.001-.502.105-.638.413-1.105 2.483-2.228 4.957-3.344 7.437-.063.139-.114.285-.177.444h11.852v-.495c-.001-1.922-.005-3.842-.003-5.762 0-.493.313-.84.714-.75.207.049.408.202.57.352 2.3 2.133 4.59 4.28 6.895 6.408.168.154.443.26.673.268.916.03 1.833.016 2.75.012 1.39-.005 2.156-.771 2.156-2.154l.001-24.2v-.487h-.566c-4.04 0-8.081.018-12.121-.018-.653-.007-.968.167-1.225.781-.797 1.897-1.673 3.764-2.56 5.732zm13.498 24.273l-9.469-8.828v12.849c.054-.01.092-.005.105-.02 1.005-1.175 2.012-2.35 3-3.539.078-.094.07-.317.017-.447-.297-.727-.623-1.445-.933-2.166-.205-.478-.11-.798.276-.97.387-.171.686-.028.9.457.319.717.618 1.446.953 2.156.064.137.248.295.384.304 1.544.082 3.089.135 4.767.204zM9.874 4.022a.614.614 0 0 1-.631.615c-.355-.004-.612-.27-.613-.635-.001-.372.292-.664.653-.644a.63.63 0 0 1 .592.663zm-3.297.615a.608.608 0 0 1-.637-.609c-.015-.375.264-.673.626-.67.347 0 .61.274.614.639.004.367-.246.632-.603.64zm-2.695-.002c-.366.006-.613-.237-.622-.612-.01-.385.257-.67.622-.665.349.004.6.274.6.644 0 .377-.236.63-.6.633zm19.933 15.037c0-.758-.004-1.517.001-2.273.004-.532.226-.762.75-.78.386-.012.773-.008 1.159-.001 1.426.019 2.325.736 2.651 2.138.225.966.145 1.907-.342 2.786-.468.844-1.194 1.285-2.163 1.308-.414.008-.83.004-1.244 0-.559-.005-.803-.246-.81-.818-.009-.785-.002-1.575-.002-2.36zm1.31 1.867c.76.07 1.467.073 1.827-.684.397-.839.394-1.708-.138-2.488-.413-.608-1.077-.443-1.688-.455v3.627zm-9.771-.441c0 .383.01.77-.003 1.153-.014.468-.273.752-.654.748-.378-.007-.627-.291-.629-.767a570.978 570.978 0 0 1 0-4.851c.003-.537.222-.752.763-.762.486-.007.975-.014 1.458.029.916.083 1.61.715 1.763 1.558.168.937-.237 1.72-1.11 2.15-.076.04-.154.075-.263.128.368.422.723.83 1.078 1.235.412.472.445.815.105 1.108-.346.3-.645.227-1.083-.268-.443-.5-.883-1-1.324-1.503-.034.016-.067.028-.101.042zm.026-1.852c.502-.005 1.025.164 1.311-.342.099-.177.075-.533-.044-.697-.314-.433-.804-.288-1.267-.283v1.322zm-4.423-2.648c.293.102.843.254 1.35.493.44.207.532.577.33.923-.2.342-.552.42-.969.182-.738-.42-1.455-.38-2.137.104a1.854 1.854 0 0 0-.593 2.3c.378.796 1.302 1.281 2.09 1.048.262-.077.507-.252.73-.422.378-.288.729-.306.99-.012.24.274.203.637-.1.959-1.245 1.317-3.566 1.015-4.65-.624-.684-1.034-.725-2.139-.153-3.22.591-1.12 1.583-1.652 3.112-1.73zm9.604 1.307v1.242c.397 0 .778-.003 1.16.001.497.007.797.253.79.647-.006.39-.31.634-.808.64-.344.005-.687.005-1.03.009-.027 0-.052.018-.103.037v1.176c.434 0 .86-.005 1.284 0 .513.01.798.238.806.637.008.422-.277.65-.823.653-.616.004-1.232.005-1.848-.002-.5-.005-.73-.233-.732-.742a706.93 706.93 0 0 1 0-4.854c.002-.478.23-.716.711-.729a42.888 42.888 0 0 1 1.977.002c.451.01.71.258.713.633.003.395-.264.635-.744.647-.442.01-.883.003-1.353.003zm14.216-.007v.828c0 1.158.004 2.317-.003 3.476-.003.511-.244.793-.645.789-.4-.002-.636-.279-.64-.794-.006-1.26-.002-2.518-.002-3.776v-.523c-.287 0-.526.014-.763-.003-.384-.029-.628-.278-.634-.622a.612.612 0 0 1 .615-.64c.958-.021 1.916-.021 2.873 0 .38.01.616.305.605.65-.01.345-.25.585-.642.612-.237.017-.477.003-.764.003zm-3.834 1.901c0 .8.004 1.602-.002 2.401-.003.497-.254.8-.647.8-.394.002-.639-.296-.64-.797-.002-1.6-.003-3.203 0-4.803.002-.5.215-.752.616-.767.416-.013.666.263.67.763.008.8.003 1.6.003 2.403z"/></g></g></svg>