<svg xmlns="http://www.w3.org/2000/svg" width="22" height="36" viewBox="0 0 22 36"><g><g><path fill="#fff" d="M21.584 11.615v12.681c0 5.97-4.823 10.823-10.75 10.823C4.909 35.12.087 30.253.087 24.262V11.615C.086 5.632 4.908.758 10.835.758c5.926 0 10.749 4.874 10.749 10.857zm-2.022 0c0-4.878-3.915-8.846-8.727-8.846s-8.727 3.968-8.727 8.846v12.647c0 4.88 3.915 8.848 8.727 8.848s8.727-3.953 8.727-8.814zm-7.716-1.54v3.52c0 .556-.453 1.005-1.011 1.005-.559 0-1.011-.45-1.011-1.005v-3.52c0-.56.452-1.003 1.01-1.003.56 0 1.012.444 1.012 1.003z"/></g></g></svg>