<svg xmlns="http://www.w3.org/2000/svg" width="36" height="36" viewBox="0 0 36 36"><g><g><path fill="#ffc97b" d="M32.28 36H3.145c-1.387-.525-1.747-1.053-1.747-2.567V14.638v-.439c-.544 0-1.107.112-1.397-.488V7.562c.016-.032.037-.06.048-.092.379-1.165 1.05-1.655 2.27-1.655h3.654c.063-.553.084-1.058.181-1.545.373-1.864 1.02-3.53 3.14-4.044h.978c1.008.2 1.768.83 2.543 1.445.876.69 1.77 1.359 2.645 2.055.19.15.31.15.51.016.269-.178.566-.334.872-.43 1.682-.528 3.278-.384 4.76.683 1.061-.82 2.133-1.636 3.191-2.47.724-.57 1.451-1.125 2.388-1.3h.978c1.018.234 1.78.812 2.302 1.713.455.787.718 1.637.84 2.53.06.442.09.89.135 1.347.777 0 1.52-.01 2.264.005.751.015 1.346.345 1.744.98.145.232.223.507.331.762v6.149c-.289.62-.883.466-1.397.499v.462c0 6.335-.006 12.668.006 19 .002.835-.354 1.436-1.032 1.852-.33.201-.712.321-1.07.476zM15.78 16.6a.406.406 0 0 1-.055-.012l-.158.309c-.629 1.247-1.26 2.49-1.885 3.74-.163.325-.374.568-.77.541-.341-.022-.546-.245-.67-.703-.054-.2-.104-.403-.158-.609-.208-.768-.417-1.538-.629-2.326-.11.022-.189.034-.265.055-.91.241-1.819.486-2.729.729-.43.111-.715.031-.903-.242-.196-.286-.17-.564.101-.928.643-.874 1.289-1.742 1.933-2.612.072-.097.139-.2.22-.315H2.803c-.004.083-.009.142-.009.2V33.78c.001.567.265.823.845.823h11.842c.1 0 .2-.015.298-.022v-17.98zm5.626-.067v18.07h10.325c.082 0 .164 0 .245-.012.679-.083 1.003-.445 1.003-1.117V14.647v-.419h-5.576c.052.079.08.13.113.177l2.052 2.821c.198.272.242.56.05.845-.2.292-.483.372-.829.273-.502-.142-1.01-.273-1.515-.407-.512-.135-1.024-.27-1.558-.409-.272 1.019-.535 1.994-.79 2.971-.093.353-.26.636-.654.676-.396.043-.612-.201-.776-.526-.63-1.26-1.266-2.513-1.901-3.77-.05-.098-.106-.194-.189-.345zm-2.82-5.615c-.45.893-.865 1.697-1.261 2.513-.082.17-.131.374-.131.561-.007 6.74-.006 13.482-.006 20.224v.356h2.785c.005-.073.01-.121.01-.167l-.001-20.502c0-.091.005-.196-.033-.273-.437-.882-.883-1.76-1.363-2.712zm4.08-3.706l-.04.123c.065.051.123.113.195.156 1.242.733 2.477 1.475 3.732 2.183 1.204.681 2.264.378 2.832-.88.891-1.967.874-3.984-.03-5.942-.632-1.372-1.877-1.618-3.077-.705-1.1.842-2.191 1.694-3.286 2.54-.547.422-.546.422-.321 1.075.003.01.016.015.059.052.673 0 1.38-.004 2.089.003.447.004.754.3.751.701-.002.399-.31.684-.76.693-.325.005-.651.001-.977.001h-1.168zM14.791 4.97c-1.24-.962-2.467-1.922-3.707-2.863-1.118-.85-2.313-.583-2.987.65-.422.77-.594 1.612-.66 2.476-.098 1.31.035 2.586.692 3.752.582 1.035 1.55 1.333 2.586.768 1.244-.683 2.456-1.42 3.676-2.145.073-.044.124-.178.124-.27 0-.042-.15-.118-.234-.12-.477-.01-.955-.005-1.432-.005-.163 0-.326.004-.489-.001-.451-.014-.757-.294-.76-.694-.002-.4.304-.696.752-.7.709-.007 1.417-.003 2.12-.003l.319-.845zM1.398 12.8h.41c2.652 0 5.306-.038 7.956.024.84.02 1.384-.19 1.804-.92.335-.581.79-1.092 1.191-1.637-.506.222-.957.506-1.432.74-1.705.856-3.42.353-4.386-1.288a6.267 6.267 0 0 1-.509-1.14c-.15-.438-.24-.894-.362-1.363-1.344 0-2.691-.01-4.039.007-.37.004-.628.313-.63.707-.007 1.604-.003 3.21-.003 4.87zm23.055-2.726c-.013.02-.027.038-.04.06.588.81 1.182 1.613 1.759 2.43.13.184.268.243.488.242 2.454-.008 4.909-.006 7.363-.006.112 0 .223-.008.35-.016 0-1.656.007-3.283-.004-4.911a.64.64 0 0 0-.614-.648c-.811-.021-1.623-.007-2.438-.007-.177 1.057-.463 2.046-1.1 2.894-.516.693-1.185 1.135-2.053 1.259-.883.13-1.68-.104-2.432-.545l-1.279-.752zm2.858 6.423L21.83 8.96c-.74.365-1.427.704-2.136 1.052l4.304 8.519c.185-.686.341-1.27.5-1.852.176-.638.469-.805 1.106-.636l1.707.454zm-14.136 2.034l4.335-8.586c-.398-.143-.757-.245-1.088-.404-.33-.157-.631-.374-.958-.572l-5.51 7.435c.59-.088 1.136-.238 1.684-.38.553-.143.864.04 1.016.593.167.604.33 1.208.52 1.914zm5.428-9.918c.657-.014 1.292-.126 1.853-.501 1.185-.79 1.195-2.386.022-3.189-1.001-.687-2.814-.677-3.808.02-1.147.804-1.13 2.392.037 3.169.573.382 1.22.491 1.896.5zM4.193 30.188c0-.73-.004-1.463 0-2.195.003-.478.28-.792.692-.795.41-.004.702.309.703.784.004 1.475.004 2.95 0 4.425 0 .478-.28.792-.69.796-.412.005-.701-.312-.704-.783-.005-.745-.002-1.486-.002-2.232zm.69-4.392a.704.704 0 0 1-.688-.72.703.703 0 0 1 .703-.672.704.704 0 0 1 .689.687.703.703 0 0 1-.703.705z"/></g></g></svg>