<svg xmlns="http://www.w3.org/2000/svg" width="52" height="26" viewBox="0 0 52 26"><g><g><path fill="#000" d="M51.22 22.15c-.331.717-.913.928-1.67.913-1.429-.03-2.86-.01-4.346-.01 0 .559.004 1.07-.001 1.581-.01.894-.494 1.405-1.385 1.415a294.55 294.55 0 0 1-4.553 0c-.906-.009-1.378-.493-1.392-1.397-.008-.513-.002-1.03-.002-1.57H13.143c0 .483.003.958 0 1.432-.007 1.085-.463 1.535-1.562 1.536-1.417.003-2.835.004-4.252 0-1.05-.001-1.52-.479-1.524-1.529-.002-.465 0-.93 0-1.468h-1.16c-1.067 0-2.134.006-3.202 0-.987-.007-1.458-.487-1.458-1.485-.002-3.684-.002-7.366 0-11.052 0-2.005.889-3.215 2.796-3.81.063-.019.12-.056.21-.097V3.97C2.994 1.549 4.5.049 6.933.045c2.536-.004 5.071.03 7.605-.014 1.448-.026 2.757.204 3.745 1.387.33-.27.619-.537.941-.76.636-.435 1.353-.617 2.124-.616C24 .046 26.652.064 29.303.035c1.417-.015 2.4.174 3.5 1.302.591-.358 1.14-.762 1.75-1.034.41-.185.903-.245 1.36-.25C38.73.033 41.55.035 44.368.046c2.326.009 3.838 1.543 3.844 3.874.002.898 0 1.796 0 2.716.991.242 1.843.694 2.377 1.56.273.445.424.965.63 1.45V22.15zM7.26 11.26h2.067c.366.001.736-.015 1.098.028.414.052.656.317.661.747.005.396-.303.686-.744.72-.133.01-.267.005-.4.005-1.318.001-2.635-.003-3.953.003-1.056.004-1.493.441-1.497 1.48v.202c.003 1.085.42 1.5 1.522 1.502.967.003 1.935 0 2.902 0 2.418 0 4.837.006 7.255-.003.937-.002 1.382-.45 1.402-1.371.032-1.443-.328-1.812-1.771-1.812-.734 0-1.468.004-2.202-.003-.555-.004-.89-.278-.905-.716-.015-.46.329-.768.907-.78.634-.01 1.268.01 1.901-.003 1.034-.025 2.042.024 2.838.85.751-.744 1.655-.857 2.616-.853 2.985.015 5.97.014 8.956.001 1.08-.005 2.141.002 2.973.885.775-.795 1.716-.893 2.71-.886 2.568.015 5.136.004 7.705.004h.596v-.735c.003-1.932.755-3.037 2.533-3.764.13-.054.264-.278.268-.427.026-.815.015-1.634.012-2.45-.004-1.467-.859-2.336-2.328-2.338-2.802-.007-5.604-.007-8.406 0-1.492.002-2.341.87-2.345 2.375-.004 1.4 0 2.8-.002 4.203 0 .382.01.766-.017 1.146-.029.407-.28.642-.678.67-.4.029-.67-.18-.756-.579a2.599 2.599 0 0 1-.047-.542c-.004-1.653 0-3.302-.004-4.952-.004-1.472-.85-2.32-2.334-2.32-2.802-.008-5.604-.008-8.406 0-1.45.002-2.306.856-2.31 2.293-.007 1.666 0 3.333-.005 5.001 0 .198-.012.403-.066.592-.107.367-.404.596-.753.489-.254-.08-.477-.35-.643-.584-.089-.126-.036-.356-.036-.54-.002-1.665.009-3.334-.004-5.001-.01-1.35-.88-2.242-2.216-2.25-2.885-.012-5.77-.012-8.656.002-1.334.007-2.196.912-2.204 2.259-.006.799.016 1.599-.01 2.4-.01.352.092.513.442.637C6.204 7.299 7 8.223 7.244 9.552c.097.53.016 1.091.016 1.708zm36.614 6.186h-.605c-2.469 0-4.937-.011-7.405.008-1.085.008-2.144-.004-2.989-.88-.735.77-1.636.885-2.6.88a880.62 880.62 0 0 0-8.956-.002c-1.08.006-2.144.021-2.977-.858-.712.727-1.56.864-2.474.86-2.668-.015-5.337-.008-8.005-.008h-.528v4.074h36.539v-4.074zm5.782 4.087c.033-.054.048-.067.048-.08.003-3.8.021-7.599-.002-11.398-.007-1.06-.885-1.857-1.986-1.94-1.082-.082-2.092.608-2.265 1.62-.082.482-.014.99-.014 1.485 2.132.534 2.802 1.336 2.775 3.314-.023 1.648-.86 2.545-2.782 2.961v4.038h4.226zM5.848 11.195c-.053-.557-.022-1.155-.179-1.698-.287-.994-1.335-1.533-2.434-1.358a2.076 2.076 0 0 0-1.745 2.067c-.01 3.696-.004 7.393-.002 11.09 0 .078.024.155.035.223h4.245v-4.053c-1.966-.132-2.726-1.477-2.777-2.628-.1-2.281.511-3.09 2.857-3.643zm34.313 4.752c1.7 0 3.4.003 5.1-.001.954-.002 1.445-.518 1.45-1.5.006-1.141-.44-1.68-1.427-1.682-3.4-.007-6.799-.007-10.198-.001-.984.001-1.457.536-1.456 1.608.001 1.057.481 1.573 1.482 1.575 1.683.004 3.366.001 5.05.001zm-14.58 0c1.716 0 3.431-.005 5.147.003.527.003.963-.173 1.212-.639.314-.59.294-1.236.042-1.83-.25-.589-.8-.727-1.412-.724-3.249.01-6.497.004-9.745.004-1.348 0-1.767.42-1.75 1.748.012.94.51 1.435 1.459 1.437 1.682.004 3.364.001 5.047.001zM7.332 24.51h4.266v-1.42H7.332v1.42zm36.346-1.419h-4.275v1.434h4.275V23.09z"/></g></g></svg>