<svg xmlns="http://www.w3.org/2000/svg" width="41" height="27" viewBox="0 0 41 27"><g><g><path fill="#171717" d="M3.307 6.705c0-.67-.004-1.283 0-1.896C3.326 2.537 5.026.82 7.296.817 15.98.81 24.666.81 33.352.817c2.275.002 3.974 1.711 3.995 3.984.005.614 0 1.226 0 1.903h.812c1.5.005 2.46.954 2.461 2.449.003 4.227.001 8.45 0 12.679 0 1.584-.873 2.49-2.446 2.548-.04.001-.08.011-.172.024 0 .575.002 1.159 0 1.738-.003.638-.22.851-.865.853h-1.514c-.504-.003-.681-.134-.822-.614-.19-.653-.374-1.308-.565-1.982H6.422c-.182.635-.366 1.285-.555 1.936-.156.537-.317.658-.87.66-.518.001-1.036.005-1.554 0-.556-.006-.786-.239-.79-.805-.004-.583 0-1.17 0-1.774-.284-.035-.553-.046-.813-.1C.786 24.082.041 23.2.04 22.125c-.01-4.39-.012-8.78 0-13.17.003-1.241 1.002-2.218 2.243-2.25.325-.008.65-.001 1.024-.001zm16.978 16.364l17.834-.001c.816 0 1.192-.362 1.192-1.156.002-4.256.002-8.508 0-12.762 0-.75-.381-1.131-1.132-1.136-.954-.004-1.908-.001-2.863 0-.893 0-1.24.345-1.241 1.231v7.688c0 .694-.206.9-.903.9H7.484c-.699 0-.903-.206-.903-.897-.001-2.591 0-5.181-.002-7.77 0-.776-.377-1.147-1.157-1.152-.94-.002-1.881-.001-2.822 0-.92 0-1.257.337-1.257 1.257v12.472c0 1.01.313 1.326 1.313 1.326h17.63zM7.889 12.277c.815-.653 1.659-.99 2.62-.99 6.545 0 13.088-.001 19.632.002.858 0 1.634.259 2.33.761.081.058.169.11.295.192 0-1.102-.007-2.152.001-3.2.01-1.34.99-2.32 2.324-2.337.308-.004.616-.001.948-.001V5.02c-.002-1.832-1.063-2.896-2.89-2.896H7.507c-.137 0-.273-.004-.41.004-1.126.054-2.186.858-2.374 1.96-.144.845-.1 1.724-.142 2.616h.86c1.493.006 2.445.961 2.449 2.46.002 1.01 0 2.014 0 3.113zm24.876 4.231v-1.011c0-1.835-1.06-2.902-2.884-2.902H10.783c-.136 0-.273-.002-.409.006-1.126.05-2.164.857-2.383 1.956-.126.63-.095 1.288-.136 1.951h24.91zM3.99 24.39v1.286h.704l.36-1.286H3.99zm32.68 1.284v-1.279h-1.067l.357 1.28h.71z"/></g></g></svg>