<svg xmlns="http://www.w3.org/2000/svg" width="44" height="27" viewBox="0 0 44 27"><g><g><path fill="#171717" d="M43.469 16.99c-.34.996-.949 1.69-2.06 1.796-.39.036-.786.04-1.237.062v1.269c0 .634.004 1.269 0 1.906-.011 1.442-.93 2.378-2.38 2.414-.578.012-1.156.001-1.806.001 0 .44.003.857 0 1.274-.005.88-.413 1.284-1.3 1.284-1.228 0-2.457.003-3.686 0-.804-.001-1.218-.412-1.23-1.222-.007-.425-.002-.848-.002-1.303H13.765c0 .417.003.834 0 1.25-.008.87-.408 1.274-1.265 1.275-1.229.003-2.458.003-3.687 0-.852-.001-1.26-.412-1.266-1.275-.003-.408 0-.815 0-1.283-.62 0-1.208.01-1.796-.001-1.189-.025-2.057-.67-2.319-1.732-.06-.243-.066-.504-.069-.755-.009-.99-.006-1.981-.009-2.968 0-.027-.014-.055-.035-.132-.384-.018-.787-.022-1.187-.064C.93 18.668.075 17.77.071 16.556.056 12.57.059 8.587.069 4.602c.002-1.087.648-1.8 1.49-2.37C2.695 1.464 3.984 1.098 5.316.89c1.959-.304 3.926-.297 5.839.248.864.247 1.63.215 2.49-.006 2.628-.667 5.256-.567 7.851.253a.986.986 0 0 0 .565-.006c2.933-.903 5.86-.903 8.794-.001.197.062.447.048.647-.012 2.921-.897 5.839-.892 8.749.027a6.45 6.45 0 0 1 2.213 1.212c.508.429.791.974 1.005 1.575V16.99zM42.197 6.313c0-.531-.022-1.025.006-1.514.03-.516-.162-.945-.57-1.205-.6-.387-1.22-.79-1.89-1.005-2.687-.86-5.385-.817-8.074.06-.287.092-.653.126-.931.035-2.86-.949-5.707-.95-8.565.003a1.338 1.338 0 0 1-.812 0c-2.858-.953-5.706-.953-8.564 0a1.338 1.338 0 0 1-.812.003c-2.431-.845-4.897-.914-7.387-.352-.982.22-1.939.55-2.697 1.251-.237.218-.488.533-.528.831-.081.607-.024 1.232-.024 1.893h.526c3.377 0 6.753-.001 10.13.001.534 0 .84.234.848.63.009.396-.297.633-.826.64-.085.001-.17 0-.255 0H1.336v8.706c0 .886.364 1.259 1.264 1.259 12.773.002 25.545.002 38.318.001.922-.001 1.278-.368 1.279-1.289V8.034c0-.137-.013-.274-.022-.45H15.201c-.17 0-.34.008-.508-.01-.336-.041-.541-.237-.564-.582-.022-.344.157-.567.489-.642.176-.038.364-.036.547-.036h27.032zM4.644 18.837c0 1.175-.017 2.302.008 3.43.01.448.317.75.762.84.205.044.419.056.629.056 10.48.004 20.962.001 31.443.001.113 0 .226.007.339 0 .717-.055 1.067-.425 1.074-1.148.006-.593.001-1.188.001-1.78v-1.399H4.644zm7.817 6.876v-1.245H8.85v1.245h3.612zm22.22 0V24.47h-3.61v1.243h3.61zM8.535 12.626c-.61-.699-.688-.943-.41-1.268.285-.333.531-.276 1.357.322.795-.596 1.03-.656 1.324-.349.311.326.234.587-.376 1.282.612.762.679 1.007.359 1.315-.312.3-.573.226-1.308-.385-.408.279-.764.937-1.363.316-.297-.305-.195-.563.417-1.233zm25.52.917c-.74.611-.997.685-1.308.385-.324-.31-.257-.555.358-1.315-.61-.697-.687-.955-.378-1.28.297-.312.535-.25 1.324.347.84-.598 1.074-.654 1.358-.322.279.324.2.57-.353 1.203.176.332.368.633.491.96.038.1-.085.295-.184.402-.295.313-.56.231-1.308-.38zm-13.231-.917c-.617-.708-.694-.97-.384-1.295.294-.306.52-.247 1.325.35.83-.6 1.072-.656 1.355-.322.28.327.201.573-.398 1.251.597.765.665 1.019.357 1.315-.311.304-.572.23-1.309-.38-.4.263-.77.936-1.328.343-.51-.545.084-.894.382-1.262z"/></g></g></svg>