<svg xmlns="http://www.w3.org/2000/svg" width="32" height="32" viewBox="0 0 32 32"><g><g><g><path fill="#ff4b4f" d="M16 0c8.837 0 16 7.164 16 16 0 8.838-7.163 16-16 16S0 24.838 0 16C0 7.164 7.163 0 16 0z"/></g><g><path fill="#fff" d="M11.296 11.658a1.304 1.304 0 0 0 0 1.843l2.764 2.765-2.764 2.763a1.304 1.304 0 0 0 1.842 1.843l2.764-2.765 2.765 2.765a1.304 1.304 0 0 0 1.843-1.843l-2.765-2.763 2.764-2.765a1.304 1.304 0 0 0-1.842-1.843l-2.765 2.765-2.764-2.765a1.304 1.304 0 0 0-1.842 0z"/></g></g></g></svg>