<svg xmlns="http://www.w3.org/2000/svg" width="93" height="94" viewBox="0 0 93 94"><g><g><path fill="#fff" d="M8.679 21.04l5.043 3.25-.614.952-4.154-2.677-1.097 1.703 2.606 2.155c.94.778 1.048 1.584.324 2.419l-.84-.54c.253-.426.173-.81-.242-1.15l-3.234-2.69zm4.336-5.078l.779-.848 4.417 4.064-.779.844-2.944-2.707 1.179 4.628-.778.846-4.417-4.06.778-.847 2.945 2.707zm8.885-1.787a1.825 1.825 0 0 0-.113-.585l1.091-.428c.114.34.164.676.152 1.009a2.578 2.578 0 0 1-.332 1.175c-.205.366-.48.683-.824.947-.353.27-.736.454-1.15.554-.413.098-.813.101-1.2.007-.724-.168-1.345-.592-1.865-1.268-.527-.688-.776-1.403-.745-2.14.007-.411.114-.799.321-1.163.207-.366.487-.684.84-.952.745-.571 1.527-.76 2.346-.57.38.094.741.266 1.085.512l-.805.868a1.829 1.829 0 0 0-.574-.284c-.49-.136-.96-.032-1.409.314-.459.35-.682.777-.669 1.278-.005.424.183.891.562 1.406.394.495.798.799 1.211.91.233.067.474.071.724.01.25-.056.476-.165.68-.33.21-.154.376-.343.498-.57.12-.226.18-.459.176-.7zm4.641-7.9l.498.935-1.669.89 2.326 4.361-1 .534-2.326-4.363-1.669.89-.498-.933zm7.67 3.504l-.587-.794-2.313.809.044.982-1.101.385-.25-6.268 1.597-.558 3.71 5.057zm-2.942-1.092l1.699-.592-1.826-2.47zm7.227-7.89l.862-.15c.062.363-.012.694-.222.991-.21.3-.497.479-.858.54a1.276 1.276 0 0 1-.99-.221 1.27 1.27 0 0 1-.541-.856l.862-.152a.423.423 0 0 0 .186.294.42.42 0 0 0 .334.072.428.428 0 0 0 .29-.178.433.433 0 0 0 .077-.34zm.943 1.688l1.133-.194 1.02 5.912-1.132.196-.681-3.94-1.89 4.384-1.133.195-1.02-5.913 1.132-.196.681 3.943zm8.38-.48l.015 1.057-1.892.028.07 4.942-1.133.014-.07-4.94-1.892.025-.015-1.056zm5.984 1.722l-2.76-.362-.182 1.397 2.264.295-.137 1.051-2.264-.296-.183 1.406 2.76.359-.137 1.051-3.884-.506.777-5.953 3.883.508zm8.118 4.043c.071.134.13.266.175.407.12.376.113.76-.023 1.148-.13.372-.363.676-.699.912a1.81 1.81 0 0 1-1.096.305 2.125 2.125 0 0 1-.565-.102l-2.39-.837 1.984-5.662 2.257.792c.173.06.326.142.46.25.311.218.514.506.609.856.116.341.114.697-.006 1.075a1.49 1.49 0 0 1-.706.856zm-.715-2.042l-1.164-.409-.421 1.205 1.226.429a.62.62 0 0 0 .431-.097.56.56 0 0 0 .264-.323.694.694 0 0 0-.014-.465.621.621 0 0 0-.132-.204.477.477 0 0 0-.19-.136zm-.634 3.671c.191-.074.332-.225.424-.452a.723.723 0 0 0-.02-.6.701.701 0 0 0-.419-.366l-1.29-.451-.506 1.446 1.29.454a.727.727 0 0 0 .521-.03zm8.639-1.121l.995.542-2.874 5.268-.995-.545.974-1.783-2.356-1.286-.973 1.786-.995-.543L65.86 6.45l.995.544-1.393 2.553 2.356 1.284zm6.383 4.5l.9.715-3.729 4.7-.9-.715 2.485-3.132-4.53 1.512-.9-.716 3.73-4.701.9.716-2.486 3.134zm1.93 3.588c.446-.319.933-.392 1.46-.22.345.107.694.352 1.047.734.357.391.573.764.648 1.115.065.296.056.584-.029.864-.085.282-.24.524-.465.73a1.61 1.61 0 0 1-1.193.44c.013.236-.027.476-.12.719-.094.268-.26.51-.498.729a1.914 1.914 0 0 1-.807.444c-.3.08-.604.079-.91 0-.428-.113-.84-.385-1.233-.816-.39-.426-.624-.856-.699-1.291-.098-.552.042-1.049.419-1.494l.947.738c-.19.189-.27.399-.24.628.024.253.142.49.353.705.23.234.454.37.672.412.245.054.475-.018.688-.212.217-.199.305-.42.264-.66-.025-.241-.142-.476-.352-.706l-.254-.276.799-.733.253.277c.196.198.38.315.551.355a.556.556 0 0 0 .549-.142.544.544 0 0 0 .182-.528c-.027-.194-.129-.388-.305-.58-.176-.192-.36-.312-.55-.355a.561.561 0 0 0-.525.131zm1.164 8.578c-.334.241-.638.344-.912.304-.274-.04-.496-.227-.664-.563l.425-.225c.1.168.226.254.377.254.15 0 .302-.07.452-.217l-.34-.47.919-.664.662.919zm9.413 4.462l.488 1.03-5.426 2.565-.487-1.034 2.223-1.049a2.201 2.201 0 0 1-1.01-1.063 2.247 2.247 0 0 1-.214-1c.004-.355.087-.675.247-.96.246-.43.65-.778 1.213-1.044l1.439-.676.491 1.039-1.206.567c-.452.215-.754.463-.907.752-.164.319-.161.655.007 1.01.176.374.427.592.753.66.206.043.45.03.736-.045.127-.043.251-.09.372-.149zm2.726 7.928l-1.015.301-.536-1.814-4.74 1.396-.32-1.086 4.74-1.399-.536-1.813 1.015-.3zm-5.24 5.778a3.074 3.074 0 0 1 .1-1.263 2.51 2.51 0 0 1 .605-1.05c.5-.531 1.18-.85 2.04-.957.865-.107 1.605.035 2.22.431.35.214.63.501.84.866.21.364.343.764.398 1.207.115.931-.117 1.703-.697 2.31-.485.513-1.167.833-2.048.959-.873.09-1.61-.053-2.211-.432a2.585 2.585 0 0 1-.848-.88 3.083 3.083 0 0 1-.399-1.191zm1.059-.129c.026.258.106.496.239.71.133.218.305.389.517.511.385.224.884.296 1.496.22.617-.076 1.084-.27 1.398-.576.175-.172.3-.382.377-.622.076-.241.096-.492.058-.75a1.686 1.686 0 0 0-.24-.717 1.412 1.412 0 0 0-.516-.507c-.363-.218-.862-.294-1.497-.227-.628.089-1.093.283-1.397.585-.176.166-.301.37-.378.616a1.7 1.7 0 0 0-.057.757zm2.38 9.24c-.379.257-.776.373-1.192.343a2.016 2.016 0 0 1-1.155-.453 1.894 1.894 0 0 1-.67-1.032 2.066 2.066 0 0 1-.063-.612l.126-2.74 5.994.278-.19 4.13-1.058-.05.139-2.998-.983-.046-.074 1.608a2.001 2.001 0 0 1-.259.902 1.92 1.92 0 0 1-.615.67zm-1.72-1.05c.144.14.338.222.581.244a.875.875 0 0 0 .558-.158c.253-.172.385-.393.398-.665l.074-1.598-1.831-.085-.074 1.599c-.012.243.087.465.294.662zm1.64 6.359a1.98 1.98 0 0 1-.421.839c-.207.247-.45.429-.728.545-.42.186-.833.226-1.235.117a2.014 2.014 0 0 1-1.052-.657 1.89 1.89 0 0 1-.468-1.14 2.085 2.085 0 0 1 .05-.613l.63-2.668 5.84 1.38-.26 1.103-1.987-.468zm1.333 3.237l-.26 1.102-5.84-1.378.26-1.103zm-3.98-3.2c.116.164.291.279.527.346.182.05.375.032.577-.053.28-.12.452-.315.514-.58l.368-1.556-1.784-.421-.368 1.556c-.056.239 0 .475.167.708zm-.144 13.006l-.538 1.035-3.287-4.319a4.289 4.289 0 0 1-.402-.646 1.394 1.394 0 0 1-.135-.58 1.514 1.514 0 0 1 .183-.732c.1-.193.245-.382.434-.564l.718.786a.883.883 0 0 0-.22.261.538.538 0 0 0-.072.283c.008.167.109.382.304.646l4.901.198-.53 1.021-3.579-.198zm-2.91 2.168c.398.376.564.838.498 1.392-.037.357-.21.748-.519 1.17-.312.423-.635.708-.967.85-.275.121-.56.167-.852.138a1.61 1.61 0 0 1-.808-.313 1.606 1.606 0 0 1-.66-1.086c-.23.058-.473.066-.73.02a1.791 1.791 0 0 1-.81-.346 1.894 1.894 0 0 1-.594-.704 1.772 1.772 0 0 1-.175-.897c.028-.44.214-.894.56-1.364.342-.466.72-.78 1.132-.937.522-.203 1.037-.161 1.545.12l-.54 1.074c-.221-.148-.441-.187-.66-.114-.248.074-.456.235-.624.483-.186.27-.277.518-.275.739-.005.252.109.462.341.634.238.175.47.218.7.131.231-.071.44-.232.624-.483l.222-.302.873.642-.222.303c-.156.23-.236.432-.241.607-.016.21.066.381.245.512a.55.55 0 0 0 .554.076c.185-.063.355-.203.51-.41.154-.21.234-.415.24-.61a.565.565 0 0 0-.23-.49zm-5.966 9.05l-.814.785-4.173-4.308.814-.79 1.414 1.46 1.928-1.865-1.414-1.46.814-.79 4.173 4.313-.814.786-2.023-2.09-1.928 1.867zm-9.538-.129l.78.603 2.005-1.41-.31-.933.955-.67 1.95 5.963-1.384.973-4.95-3.854zm3.128.246l-1.473 1.036 2.43 1.88zm-6.672 8.464l-.47-.95 1.697-.839-2.19-4.429 1.016-.502 2.19 4.43 1.695-.838.47.949zm-7.135-.554c-.376-.266-.621-.599-.737-.997a2.012 2.012 0 0 1 .024-1.242c.129-.403.374-.731.736-.987.172-.118.356-.21.552-.273l2.612-.83 1.82 5.719-1.08.342-.619-1.947-1.532.488a1.992 1.992 0 0 1-.936.07 1.92 1.92 0 0 1-.84-.343zm.386-1.977a.925.925 0 0 0-.027.63c.052.181.165.339.341.467.249.178.503.228.762.142l1.525-.484-.556-1.747-1.525.486c-.233.074-.406.241-.52.506zm-8.266-.06c.437-.032.856.019 1.257.157.402.138.742.354 1.022.65.51.524.798 1.216.867 2.08.068.87-.108 1.602-.529 2.2-.229.339-.53.608-.901.803-.372.193-.78.306-1.223.343-.936.073-1.695-.192-2.278-.799-.492-.506-.781-1.203-.868-2.087-.053-.877.124-1.606.529-2.191.24-.341.546-.609.918-.809.372-.195.774-.31 1.206-.346zm.084 1.066c-.26.014-.502.084-.724.207-.22.124-.399.288-.533.492-.238.377-.332.872-.284 1.486.05.621.22 1.095.514 1.423.165.18.367.316.605.404.238.087.487.116.747.09a1.68 1.68 0 0 0 .727-.206c.225-.124.401-.29.53-.494.234-.354.331-.848.292-1.486-.061-.633-.236-1.105-.523-1.422a1.438 1.438 0 0 0-.6-.404 1.687 1.687 0 0 0-.751-.09zm-11.79 4.41l-1.12-.177.937-5.925 1.12.175-.318 2.01 2.65.418.318-2.008 1.12.178-.937 5.925-1.12-.178.455-2.872-2.65-.418zm-5.612-7.77l-.022.987 2.324.775.567-.8 1.107.368-3.642 5.108-1.604-.537.164-6.27zm1.658 2.663l-1.707-.571-.069 3.071zm-8.442-4.199c-.179.087-.342.202-.488.343l-.836-.819c.264-.242.55-.426.857-.55a2.551 2.551 0 0 1 1.21-.18c.418.034.819.156 1.2.36.391.214.717.488.977.823.261.335.427.7.5 1.094.144.724.013 1.467-.394 2.22-.411.762-.96 1.282-1.644 1.555a2.423 2.423 0 0 1-1.193.185 3.1 3.1 0 0 1-1.213-.375c-.827-.446-1.32-1.08-1.481-1.907a3.134 3.134 0 0 1 .022-1.2l1.122.378a1.795 1.795 0 0 0-.024.641c.077.501.364.889.863 1.156.509.276.989.304 1.44.087.389-.17.74-.534 1.052-1.091.291-.562.402-1.054.333-1.478-.034-.24-.13-.46-.285-.662a1.682 1.682 0 0 0-.581-.486 1.715 1.715 0 0 0-.725-.22 1.44 1.44 0 0 0-.712.126zm-9.226-4.972c.034-.458.194-.84.478-1.146a2.007 2.007 0 0 1 1.077-.616c.411-.096.82-.054 1.224.124.19.088.362.198.517.335l2.056 1.814-3.97 4.497-3.1-2.733.7-.795 2.25 1.987.651-.738-1.206-1.064a1.995 1.995 0 0 1-.54-.767 1.914 1.914 0 0 1-.137-.898zm1.894-.683a.912.912 0 0 0-.78.832c-.025.305.065.546.27.727l1.2 1.058 1.212-1.374-1.2-1.058c-.183-.16-.417-.224-.702-.185zm-2.765-5.219c.276.342.47.716.583 1.126.113.41.126.813.041 1.21-.143.715-.55 1.348-1.225 1.89-.678.551-1.382.819-2.111.81a2.405 2.405 0 0 1-1.173-.29 3.163 3.163 0 0 1-.974-.813c-.59-.729-.801-1.508-.631-2.33.14-.695.55-1.325 1.23-1.9.694-.538 1.395-.804 2.106-.801.418.004.814.105 1.186.3s.695.462.968.798zm-.83.672a1.645 1.645 0 0 0-.58-.479 1.477 1.477 0 0 0-.71-.161c-.443.015-.905.22-1.385.606-.483.392-.777.801-.882 1.23a1.49 1.49 0 0 0 .01.725c.063.245.178.468.347.666.16.21.354.369.583.485a1.4 1.4 0 0 0 .706.156c.424-.006.887-.205 1.39-.6.486-.405.779-.819.878-1.233.06-.236.058-.477-.007-.724a1.686 1.686 0 0 0-.35-.67zm-9.69-5.798l5.261-2.883.545.993-4.332 2.375.974 1.775 3.136-1.265c1.132-.455 1.892-.165 2.282.87l-.877.482c-.252-.427-.627-.54-1.124-.335l-3.905 1.562zm.093-7.704c.254-.383.58-.638.977-.763.418-.137.832-.14 1.241-.013.406.116.741.353 1.007.708.123.17.22.35.287.544l.905 2.588-5.664 1.981-.374-1.07 1.927-.675-.53-1.516a2.01 2.01 0 0 1 .224-1.784zm1.986.33c-.185-.078-.395-.08-.63-.009a.882.882 0 0 0-.458.355c-.17.252-.21.509-.12.765l.527 1.51 1.73-.604-.527-1.511c-.08-.23-.255-.399-.522-.507zm-6.35-7.894l-.169-1.12 5.933-.898 1.021 6.756-5.932.897-.17-1.122 4.886-.737-.256-1.698-4.886.74-.17-1.121 4.886-.738-.256-1.699zm.963-7.988l-.086 2.782 1.408.044.07-2.281 1.058.032-.07 2.28 1.416.045.085-2.785 1.058.033-.12 3.915-5.997-.182.12-3.916z"/></g></g></svg>