<svg xmlns="http://www.w3.org/2000/svg" width="51" height="51"><path fill="#686db1" d="M50.57 25.725V49.53c0 1.08-.292 1.373-1.36 1.373-3.822.002-7.644.002-11.466 0-.957 0-1.294-.334-1.294-1.298V1.79c0-.96.338-1.294 1.297-1.294 3.856-.002 7.713-.002 11.57 0 .923 0 1.252.334 1.252 1.272v23.957zM38.514 2.535v46.317h10.005V2.535H38.514zM7.238 19.653c1.928 0 3.856-.003 5.784.001.887.002 1.255.356 1.256 1.234.005 3.206.005 6.414 0 9.622-.001.878-.37 1.234-1.256 1.234-3.873.004-7.746.003-11.62 0-.894 0-1.24-.344-1.241-1.234-.003-3.208-.003-6.414 0-9.622 0-.892.346-1.232 1.241-1.234 1.945-.004 3.89-.001 5.836-.001zm4.991 2.047H2.211v8H12.23v-8zM6.076 8.036c-.726.743-1.445 1.49-2.18 2.225-.354.351-.786.407-1.22.161-.418-.237-.575-.632-.456-1.091a1.28 1.28 0 01.333-.558 424.93 424.93 0 013.88-3.863c.549-.538 1.035-.53 1.594.022a509.982 509.982 0 013.84 3.832c.485.487.512 1.07.1 1.498-.416.426-1.042.397-1.54-.092-.7-.69-1.39-1.389-2.166-2.167-.015.29-.031.468-.031.646l-.003 7.521c0 .188.005.377-.023.563-.086.569-.513.916-1.064.883-.52-.033-.893-.422-.928-.975-.01-.152-.004-.307-.004-.46V8.106l-.132-.07zm.132 35.367v-.592c0-2.609-.008-5.22.01-7.829a1.69 1.69 0 01.25-.852.778.778 0 01.996-.301c.288.135.574.432.693.724.126.312.069.705.07 1.061.003 2.372.001 4.744.001 7.113v.545c.041.022.082.043.123.062.662-.673 1.317-1.353 1.992-2.014.19-.185.42-.372.666-.443.426-.126.815.019 1.07.404.263.403.245.821-.062 1.185-.285.337-.615.638-.928.95-1.038 1.039-2.072 2.079-3.12 3.107-.487.477-1.007.488-1.486.018a423.476 423.476 0 01-3.954-3.935c-.466-.47-.462-1.097-.035-1.5.409-.388 1.001-.362 1.462.087.611.594 1.208 1.204 1.812 1.807.116.115.24.218.44.403zM8.248.5c.34 0 .682-.016 1.022.002.547.03.93.421.952.946.021.536-.31.989-.856 1.022a18.53 18.53 0 01-2.297-.001c-.538-.034-.883-.505-.857-1.028.027-.516.419-.903.961-.941.034-.003.069-.003.103-.003h.971V.5zm-.037 50.4c-.358 0-.717.018-1.073-.004a.977.977 0 01-.925-.924c-.035-.52.307-1.006.842-1.04.78-.046 1.567-.047 2.347.005.535.035.856.515.817 1.051-.036.501-.411.867-.934.911-.034.004-.068.004-.102.004h-.972v-.004zM2.207.498c.34 0 .683-.017 1.023.002.543.032.925.428.943.954.018.53-.322.982-.866 1.017-.747.045-1.5.045-2.247.005C.492 2.445.135 1.98.165 1.431.195.914.585.526 1.133.5 1.49.483 1.85.499 2.207.499zm18.15 0c.34 0 .683-.017 1.022.002.544.03.926.428.945.954.019.535-.316.982-.865 1.015-.747.047-1.5.047-2.247.006-.563-.03-.94-.515-.904-1.043.035-.514.434-.907.975-.933.357-.017.716-.001 1.074-.001zM32.442.497c.324 0 .649-.01.972.002.577.02.988.404 1.02.94.034.551-.357 1.016-.956 1.046-.714.035-1.433.035-2.147-.006a.971.971 0 01-.924-1.028c.027-.53.445-.93 1.012-.952.34-.014.682-.002 1.023-.002zM2.145 50.9c-.34 0-.682.016-1.022 0-.545-.03-.934-.423-.958-.942-.025-.528.316-.996.855-1.03a19.332 19.332 0 012.297 0c.54.033.879.497.855 1.027-.023.522-.406.914-.953.943-.357.019-.716.002-1.074.002zM14.291.497c.324 0 .649-.012.972.002.585.02.983.398 1.008.94.026.557-.321 1.006-.898 1.04-.73.04-1.466.04-2.197 0-.568-.03-.942-.496-.917-1.031.026-.538.433-.927 1.01-.95.34-.013.681 0 1.022 0zM26.372.5c.358 0 .718-.017 1.074.004a.98.98 0 01.935.968c.012.505-.32.96-.836.994a19.16 19.16 0 01-2.348-.002c-.507-.033-.856-.506-.842-.994A1 1 0 0125.3.503c.356-.021.715-.004 1.073-.004zM14.246 50.9c-.324 0-.648.01-.972-.002-.58-.022-.985-.407-1.014-.942-.03-.534.344-1.007.91-1.039a20.83 20.83 0 012.197 0c.577.032.928.478.904 1.034-.023.543-.419.925-1.002.947-.34.013-.682.002-1.023.002zm6.039-.003c-.341 0-.683.018-1.023-.001a.995.995 0 01-.955-.954c-.023-.507.341-.986.875-1.018a19.941 19.941 0 012.298.004c.542.036.872.498.842 1.035-.028.506-.394.883-.912.934-.034.003-.068.003-.102.003l-1.023.001v-.004zm6.087 0c-.358 0-.717.02-1.074-.003a1.001 1.001 0 01-.943-.967c-.015-.487.336-.963.843-.996.78-.046 1.568-.046 2.348 0 .517.033.848.488.835.995-.013.521-.4.923-.935.971a1.26 1.26 0 01-.102.004h-.972v-.004zm6.036.001c-.34 0-.683.016-1.023 0-.557-.028-.973-.458-.98-.986-.007-.506.367-.965.909-.994.748-.037 1.5-.038 2.248.006.54.033.896.502.874 1.018a.992.992 0 01-.954.954c-.357.019-.716.002-1.074.002z"/></svg>