<svg xmlns="http://www.w3.org/2000/svg" width="30" height="31"><defs><filter id="p0w6a" width="50" height="51" x="-10" y="-10" filterUnits="userSpaceOnUse"><feOffset dy="1" in="SourceGraphic" result="FeOffset1041Out"/><feGaussianBlur in="FeOffset1041Out" result="FeGaussianBlur1042Out" stdDeviation="0 0"/></filter><mask id="p0w6b" width="2" height="2" x="-1" y="-1"><path fill="#fff" d="M0 0h30v30H0z"/><path d="M29.316 15.234c0 8.086-6.577 14.665-14.662 14.665S-.01 23.319-.01 15.234C-.009 7.15 6.57.571 14.654.571s14.662 6.58 14.662 14.663zm-1.465 0c0-7.277-5.92-13.196-13.197-13.196-7.278 0-13.198 5.92-13.198 13.196 0 7.277 5.92 13.2 13.198 13.2 7.277 0 13.197-5.923 13.197-13.2zm-6.1 0a.728.728 0 01-.215.522l-4.12 4.12a.729.729 0 01-1.034 0 .731.731 0 010-1.036l2.87-2.869H8.285a.737.737 0 010-1.472h10.973l-2.87-2.87a.73.73 0 010-1.035.726.726 0 011.034 0l4.12 4.12c.144.145.21.329.21.52z"/></mask></defs><g filter="url(#p0w6a)"><path fill="none" d="M29.316 15.234c0 8.086-6.577 14.665-14.662 14.665S-.01 23.319-.01 15.234C-.009 7.15 6.57.571 14.654.571s14.662 6.58 14.662 14.663zm-1.465 0c0-7.277-5.92-13.196-13.197-13.196-7.278 0-13.198 5.92-13.198 13.196 0 7.277 5.92 13.2 13.198 13.2 7.277 0 13.197-5.923 13.197-13.2zm-6.1 0a.728.728 0 01-.215.522l-4.12 4.12a.729.729 0 01-1.034 0 .731.731 0 010-1.036l2.87-2.869H8.285a.737.737 0 010-1.472h10.973l-2.87-2.87a.73.73 0 010-1.035.726.726 0 011.034 0l4.12 4.12c.144.145.21.329.21.52z" mask="url(&quot;#p0w6b&quot;)"/><path fill="#fff" fill-opacity=".4" d="M29.316 15.234c0 8.086-6.577 14.665-14.662 14.665S-.01 23.319-.01 15.234C-.009 7.15 6.57.571 14.654.571s14.662 6.58 14.662 14.663zm-1.465 0c0-7.277-5.92-13.196-13.197-13.196-7.278 0-13.198 5.92-13.198 13.196 0 7.277 5.92 13.2 13.198 13.2 7.277 0 13.197-5.923 13.197-13.2zm-6.1 0a.728.728 0 01-.215.522l-4.12 4.12a.729.729 0 01-1.034 0 .731.731 0 010-1.036l2.87-2.869H8.285a.737.737 0 010-1.472h10.973l-2.87-2.87a.73.73 0 010-1.035.726.726 0 011.034 0l4.12 4.12c.144.145.21.329.21.52z"/></g><path fill="#171717" d="M29.316 15.234c0 8.086-6.577 14.665-14.662 14.665S-.01 23.319-.01 15.234C-.009 7.15 6.57.571 14.654.571s14.662 6.58 14.662 14.663zm-1.465 0c0-7.277-5.92-13.196-13.197-13.196-7.278 0-13.198 5.92-13.198 13.196 0 7.277 5.92 13.2 13.198 13.2 7.277 0 13.197-5.923 13.197-13.2zm-6.1 0a.728.728 0 01-.215.522l-4.12 4.12a.729.729 0 01-1.034 0 .731.731 0 010-1.036l2.87-2.869H8.285a.737.737 0 010-1.472h10.973l-2.87-2.87a.73.73 0 010-1.035.726.726 0 011.034 0l4.12 4.12c.144.145.21.329.21.52z"/></svg>