<svg xmlns="http://www.w3.org/2000/svg" width="21" height="21"><path fill="#686db1" d="M14.617 7.714a.78.78 0 010 1.105l-5.256 5.256a.783.783 0 01-1.107 0l-2.502-2.502a.781.781 0 010-1.106.78.78 0 011.107 0l1.948 1.947 4.702-4.7a.78.78 0 011.108 0zm5.438 3.258A10.023 10.023 0 0110.028 21 10.022 10.022 0 010 10.972 10.022 10.022 0 0110.028.945a10.022 10.022 0 0110.027 10.027zm-1.567 0a8.455 8.455 0 00-8.46-8.46 8.456 8.456 0 00-8.461 8.46 8.457 8.457 0 008.46 8.46 8.456 8.456 0 008.461-8.46z"/></svg>