<svg xmlns="http://www.w3.org/2000/svg" width="106" height="106"><defs><filter id="lxldc" width="140" height="155" x="-17" y="-32" filterUnits="userSpaceOnUse"><feOffset dy="15" in="SourceGraphic" result="FeOffset1060Out"/><feGaussianBlur in="FeOffset1060Out" result="FeGaussianBlur1061Out" stdDeviation="12 12"/></filter><filter id="lxlda" width="200%" height="200%" x="-50%" y="-50%"><feGaussianBlur in="SourceGraphic" result="FeGaussianBlur1066Out" stdDeviation="12.5 12.5"/></filter><mask id="lxldd" width="2" height="2" x="-1" y="-1"><path fill="#fff" d="M23 8h60v60H23z"/><path d="M53 8c16.568 0 30 13.431 30 30 0 16.568-13.432 30-30 30-16.569 0-30-13.432-30-30C23 21.43 36.43 8 53 8z"/></mask><mask id="lxldb"><path fill="#fff" d="M53 8c16.568 0 30 13.431 30 30 0 16.568-13.432 30-30 30-16.569 0-30-13.432-30-30C23 21.43 36.43 8 53 8z"/></mask><clipPath id="lxlde"><path fill="#fff" d="M53 8c16.568 0 30 13.431 30 30 0 16.568-13.432 30-30 30-16.569 0-30-13.432-30-30C23 21.43 36.43 8 53 8z"/></clipPath></defs><path fill="#fff" fill-opacity=".2" d="M-2 93V-17h110V93zm25-55c0 16.568 13.431 30 30 30 16.568 0 30-13.432 30-30C83 21.43 69.568 8 53 8 36.43 8 23 21.431 23 38z" filter="url(#lxlda)" mask="url(&quot;#lxldb&quot;)"/><g filter="url(#lxldc)"><path fill="none" d="M53 8c16.568 0 30 13.431 30 30 0 16.568-13.432 30-30 30-16.569 0-30-13.432-30-30C23 21.43 36.43 8 53 8z" mask="url(&quot;#lxldd&quot;)"/><path fill="#686db1" fill-opacity=".15" d="M53 8c16.568 0 30 13.431 30 30 0 16.568-13.432 30-30 30-16.569 0-30-13.432-30-30C23 21.43 36.43 8 53 8z"/></g><path fill="#686db1" d="M53 8c16.568 0 30 13.431 30 30 0 16.568-13.432 30-30 30-16.569 0-30-13.432-30-30C23 21.43 36.43 8 53 8z"/><path fill="#fff" fill-opacity=".2" d="M-2 93V-17h110V93zm25-55c0 16.568 13.431 30 30 30 16.568 0 30-13.432 30-30C83 21.43 69.568 8 53 8 36.43 8 23 21.431 23 38z" filter="url(#lxlda)" mask="url(&quot;#lxldb&quot;)"/><path fill="none" stroke="#fff" stroke-miterlimit="20" stroke-width="10" d="M53 8c16.568 0 30 13.431 30 30 0 16.568-13.432 30-30 30-16.569 0-30-13.432-30-30C23 21.43 36.43 8 53 8z" clip-path="url(&quot;#lxlde&quot;)"/><path fill="none" stroke="#fff" stroke-linecap="round" stroke-miterlimit="20" stroke-width="4" d="M45 38v0l5 5v0l11-11.002v0"/></svg>