<svg xmlns="http://www.w3.org/2000/svg" width="102" height="102"><defs><filter id="viewa" width="140" height="150" x="-19" y="-29" filterUnits="userSpaceOnUse"><feOffset dy="10" in="SourceGraphic" result="FeOffset1025Out"/><feGaussianBlur in="FeOffset1025Out" result="FeGaussianBlur1026Out" stdDeviation="12 12"/></filter><filter id="viewc" width="200%" height="200%" x="-50%" y="-50%"><feGaussianBlur in="SourceGraphic" result="FeGaussianBlur1031Out" stdDeviation="8 8"/></filter><mask id="viewb" width="2" height="2" x="-1" y="-1"><path fill="#fff" d="M21 11h60v60H21z"/><path d="M51 11c16.568 0 30 13.431 30 30 0 16.568-13.432 30-30 30-16.569 0-30-13.432-30-30 0-16.57 13.43-30 30-30z"/></mask><mask id="viewd"><path fill="#fff" d="M51 11c16.568 0 30 13.431 30 30 0 16.568-13.432 30-30 30-16.569 0-30-13.432-30-30 0-16.57 13.43-30 30-30z"/></mask><clipPath id="viewe"><path fill="#fff" d="M51 11c16.568 0 30 13.431 30 30 0 16.568-13.432 30-30 30-16.569 0-30-13.432-30-30 0-16.57 13.43-30 30-30z"/></clipPath></defs><g filter="url(#viewa)"><path fill="none" d="M51 11c16.568 0 30 13.431 30 30 0 16.568-13.432 30-30 30-16.569 0-30-13.432-30-30 0-16.57 13.43-30 30-30z" mask="url(&quot;#viewb&quot;)"/><path fill="#303155" fill-opacity=".08" d="M51 11c16.568 0 30 13.431 30 30 0 16.568-13.432 30-30 30-16.569 0-30-13.432-30-30 0-16.57 13.43-30 30-30z"/></g><path fill="#f7f9fa" d="M51 11c16.568 0 30 13.431 30 30 0 16.568-13.432 30-30 30-16.569 0-30-13.432-30-30 0-16.57 13.43-30 30-30z"/><path fill-opacity=".04" d="M5 91V-9h92V91zm16-54c0 16.568 13.431 30 30 30 16.568 0 30-13.432 30-30C81 20.43 67.568 7 51 7 34.43 7 21 20.431 21 37z" filter="url(#viewc)" mask="url(&quot;#viewd&quot;)"/><path fill="none" stroke="#fff" stroke-linecap="round" stroke-miterlimit="20" stroke-width="10" d="M51 11c16.568 0 30 13.431 30 30 0 16.568-13.432 30-30 30-16.569 0-30-13.432-30-30 0-16.57 13.43-30 30-30z" clip-path="url(&quot;#viewe&quot;)"/><path fill="none" stroke="#22262a" stroke-linecap="round" stroke-miterlimit="20" stroke-width="4" d="M43 41v0l5 5v0l11-11.002v0" opacity=".15"/></svg>