<svg xmlns="http://www.w3.org/2000/svg" width="57" height="57"><path fill="#686db1" d="M.782 29.13c.336-1.097.954-1.929 2.127-2.216 1.116-.272 2.126.004 2.812.905 2.21 2.906 5.222 4.636 8.529 5.938 4.168 1.64 8.533 2.272 12.982 2.402 4.536.13 9.029-.203 13.421-1.431 3.304-.92 6.416-2.26 9.078-4.47a15.469 15.469 0 002.133-2.196c.748-.93 1.649-1.4 2.814-1.218 1.144.176 1.901.875 2.255 1.99.021.066.067.125.102.186v1.208c-.498.757-.916 1.583-1.507 2.258-2.693 3.07-6.118 5.07-9.879 6.534-4.215 1.642-8.613 2.425-13.112 2.679-5.343.303-10.646.023-15.862-1.264-4.397-1.088-8.51-2.804-12.044-5.703-1.566-1.287-3.116-2.617-3.849-4.613v-.989zm29.132 10.8c2.598.018 6.148-.284 9.65-1.038 4.186-.9 8.137-2.377 11.624-4.931 1.425-1.045 2.717-2.231 3.73-3.691.378-.544.297-1.078-.17-1.398-.448-.31-.959-.211-1.336.294-1.27 1.697-2.883 3.01-4.668 4.115-4.452 2.76-9.382 4.008-14.532 4.521a53.666 53.666 0 01-11.509-.09c-3.912-.454-7.704-1.355-11.265-3.083-2.694-1.306-5.145-2.942-6.967-5.383-.425-.571-.935-.712-1.403-.384-.493.345-.565.903-.106 1.488.53.675 1.078 1.344 1.693 1.94 2.56 2.474 5.626 4.112 8.952 5.291 4.956 1.758 10.097 2.35 16.307 2.349zM.782 43.302v-1.097c.035-.062.081-.117.103-.182.64-1.877 2.414-2.578 4.184-1.668.486.25.994.465 1.51.647 3.58 1.257 7.308 1.794 11.058 2.179 4.156.426 8.327.538 12.502.5 5.405-.05 10.79-.349 16.111-1.372 2.371-.456 4.714-1.012 6.893-2.124.424-.218 1-.262 1.487-.21 1.267.14 1.994.969 2.405 2.12v1.317c-.38 1.122-1.188 1.847-2.261 2.227-1.84.653-3.674 1.355-5.564 1.82-4.459 1.094-9.019 1.497-13.596 1.695-8.136.35-16.254.23-24.31-1.132-2.707-.458-5.372-1.098-7.906-2.2-1.191-.515-2.238-1.165-2.616-2.52zm28.134 4.247c3.453-.168 6.91-.294 10.36-.517 3.471-.223 6.911-.72 10.29-1.567 1.74-.437 3.459-.942 5.03-1.842.546-.313.701-.82.443-1.294-.256-.472-.766-.58-1.333-.36-1.31.504-2.607 1.072-3.957 1.44-5.328 1.456-10.797 1.885-16.29 2.083-4.502.157-9.008.145-13.497-.243a115.375 115.375 0 01-8.811-1.115c-2.45-.403-4.864-1.027-7.099-2.186-.5-.26-1.038-.078-1.28.372-.245.459-.097.967.402 1.268.312.187.643.349.978.492 3.26 1.388 6.712 2.02 10.193 2.5 4.83.67 9.695.842 14.57.969zm25.812 9.27H3.089c-1.195-.344-1.969-1.107-2.307-2.31v-1.097c.596-1.695 1.815-2.238 3.566-2.234 16.429.038 32.858.022 49.287.022.237 0 .476-.004.713.005.944.042 1.683.467 2.205 1.242.198.295.323.64.482.965v1.097c-.34 1.2-1.11 1.967-2.307 2.31zm-25.82-3.745H4.19c-.183 0-.366-.006-.55.002-.571.025-.965.388-.98.9-.017.528.392.933.981.966.128.008.256.003.385.003H53.79c.915 0 1.386-.334 1.367-.969-.02-.611-.458-.902-1.367-.902H28.908zM32.315.564c.058.038.113.086.176.108 1.359.483 2.031 1.413 2.033 2.856.004 5.326.002 10.654.002 15.978v.737c.831 0 1.628-.01 2.424.004 1.115.02 2.022.462 2.664 1.39.832 1.201.736 2.802-.307 3.828a724.346 724.346 0 01-8.23 7.996c-1.233 1.177-3.095 1.179-4.333-.001a576.81 576.81 0 01-8.266-8.037c-.901-.893-1.059-2.031-.577-3.203.517-1.258 1.515-1.898 2.856-1.966.819-.041 1.641-.007 2.535-.007v-.684c0-5.146.042-10.288-.024-15.43-.022-1.753.541-2.971 2.235-3.569h6.812zm-7.15 11.712c0 2.892.002 5.783-.002 8.675-.001.839-.326 1.162-1.162 1.167-1.007.004-2.013.003-3.02 0-.622 0-1.119.224-1.354.828-.22.567 0 1.015.42 1.422 2.58 2.492 5.146 4.998 7.72 7.496.814.79 1.476.79 2.283.005 2.56-2.486 5.114-4.978 7.68-7.46.43-.414.68-.861.464-1.463-.198-.545-.678-.822-1.412-.825-.915-.006-1.83-.002-2.745-.002-1.131 0-1.384-.253-1.384-1.385 0-5.71 0-11.422-.002-17.13 0-.835-.327-1.163-1.161-1.166a899.595 899.595 0 00-5.106 0c-.908.002-1.218.31-1.219 1.22-.002 2.871 0 5.744 0 8.618z"/></svg>