<svg xmlns="http://www.w3.org/2000/svg" width="56" height="57"><path fill="#686db1" d="M26.292 56.318c-1.041-.143-2.088-.256-3.123-.436a27.274 27.274 0 01-9.404-3.482c-.575-.341-.732-.752-.476-1.205.259-.46.734-.538 1.321-.193 2.948 1.737 6.105 2.885 9.494 3.372 6.425.928 12.442-.248 17.92-3.73 6.361-4.042 10.335-9.807 11.844-17.201C56.68 19.66 47.718 5.865 33.96 2.75 20.929-.205 7.855 6.904 3.273 19.433c-3.7 10.115-.698 21.68 7.455 28.759.198.173.464.41.472.625.012.298-.116.68-.323.888-.286.286-.696.199-.986-.083-1.004-.977-2.06-1.91-2.973-2.965C2.915 42.031.668 36.651.17 30.55c-.011-.141-.06-.282-.09-.421v-3.493c.178-1.237.312-2.483.542-3.711C2.703 11.8 12 2.71 23.167.875c1.037-.169 2.083-.289 3.125-.43h3.495c.14.03.28.068.42.09 1.436.224 2.891.355 4.303.679 10.77 2.46 19.242 11.466 21.064 22.352.171 1.02.284 2.047.424 3.07v3.493c-.03.14-.07.28-.091.42-.19 1.293-.31 2.599-.575 3.878-2.247 10.835-11.51 19.692-22.422 21.461-1.037.17-2.082.288-3.123.43h-3.495zm15.152-18.062c-.098.512-.187.988-.279 1.465-.108.559-.5.87-.984.78-.455-.08-.72-.493-.627-1.044.116-.694.265-1.382.407-2.113-1.333-.15-2.59-.529-3.747-1.22-3.16-1.89-4.791-5.657-3.991-9.238.802-3.597 3.805-6.304 7.439-6.708 4.84-.541 9.13 2.929 9.57 7.754.03.328.168.457.45.577a15.67 15.67 0 011.712.832c.652.375.658 1.15-.013 1.472-1.466.7-2.267 1.9-2.847 3.357-.373.936-.828 1.875-1.433 2.671-1.265 1.667-3.243 2.193-5.23 1.551l-.427-.136zm-2.41-2.783c.05-.987.006-1.884-1.158-2.163-.084-.02-.156-.093-.23-.144-1.918-1.315-2.803-3.73-2.161-5.898.198-.667.76-.92 1.287-.572.41.27.383.651.283 1.068-.466 1.941.566 3.916 2.33 4.426.985-2.143 2.717-3.419 4.921-4.088-.247-1.65-1.699-2.957-3.385-3.102-.568-.048-.89-.361-.863-.843.028-.479.383-.786.93-.786.18 0 .364.01.541.048 2.204.439 3.593 1.785 4.306 3.877.062.184.109.371.158.542.553.028 1.055.055 1.56.083-.126-2.53-2.47-6.09-6.855-6.177-3.668-.075-6.783 2.87-7.014 6.605-.208 3.337 2.389 6.802 5.35 7.124zm3.023 1.161c1 .625 2.536.497 3.38-.404a7.047 7.047 0 001.272-1.932c.67-1.504 1.197-3.077 2.667-4.156-.334-.12-.564-.235-.806-.285-.584-.127-1.17-.265-1.763-.327-2.373-.246-4.977 1.21-5.922 3.288-.366.803-.42 1.616-.078 2.568.163-.27.243-.453.368-.598.676-.777 1.338-1.567 2.057-2.304.348-.355.877-.268 1.164.076.29.346.242.81-.127 1.166-.105.1-.223.187-.331.283a7.47 7.47 0 00-1.881 2.625zm-24.098-8.11c.136-3.147 1.576-5.739 4.516-7.34 2.957-1.61 5.939-1.445 8.809.32 1.226.752 1.51 2.082.758 3.308-.764 1.248-2.11 1.617-3.33.827-2.26-1.467-5.156-.253-5.754 2.252-.615 2.576 1.694 5.025 4.286 4.502.423-.087.843-.34 1.193-.61 1.201-.93 2.511-.847 3.43.26.925 1.121.784 2.587-.341 3.543-2.8 2.383-7.167 2.37-10.234-.062-2.186-1.735-3.275-4.025-3.333-7zm8.578 7.187c1.506.006 2.85-.45 3.84-1.3.505-.431.619-.921.309-1.327-.299-.389-.718-.34-1.299.039-.495.323-1.02.662-1.581.813-3.69.98-7.26-2.463-6.483-6.222.77-3.718 4.818-5.482 8.118-3.535.557.328.985.255 1.254-.214.262-.458.138-.826-.413-1.162-1.415-.862-2.94-1.2-4.593-.99-3.689.47-6.297 3.706-6.057 7.536.218 3.477 3.336 6.349 6.905 6.362zM12.56 25.058v1.243c.817 0 1.612-.02 2.406.003 1.166.034 2.086.848 2.316 2.014.208 1.057-.375 2.204-1.403 2.629-.375.153-.808.204-1.219.226-.685.036-1.374.01-2.093.01v1.233c.846 0 1.677-.004 2.508 0 1.545.007 2.623 1.023 2.615 2.46-.008 1.401-1.092 2.423-2.597 2.432-1.62.01-3.239.012-4.858 0-1.561-.011-2.593-1.045-2.596-2.615-.009-3.961-.008-7.925 0-11.888.002-1.621 1.007-2.62 2.62-2.625 1.62-.005 3.239-.008 4.858 0 1.49.005 2.552.994 2.572 2.382.02 1.398-.996 2.437-2.477 2.49-.87.03-1.74.006-2.653.006zm-3.286 3.65c0 1.98-.004 3.964.003 5.945.002.71.294 1.014.987 1.018 1.602.01 3.204.009 4.805 0 .641-.002.995-.321.977-.843-.016-.5-.352-.771-.982-.774-1.074-.005-2.148.004-3.221-.005-.63-.006-.935-.312-.943-.943-.012-.854-.01-1.71-.001-2.563.006-.7.288-.984 1.001-.992.928-.011 1.857.002 2.785-.006.63-.007 1.014-.338.997-.835-.016-.479-.382-.772-.99-.777-.929-.005-1.857.005-2.785-.004-.703-.005-1.001-.3-1.008-.992-.009-.82-.006-1.638-.001-2.456.004-.772.275-1.048 1.049-1.055 1.02-.006 2.038.005 3.058-.004.702-.005 1.054-.294 1.041-.832-.012-.52-.343-.772-1.03-.773-1.547-.004-3.094-.003-4.64-.002-.849.002-1.1.253-1.101 1.11-.003 1.929-.001 3.855 0 5.783z"/></svg>