<svg xmlns="http://www.w3.org/2000/svg" width="50" height="31"><path d="M0 8.177C.606 6.655 1.91 7.039 3.125 7.05c0-1.245-.01-2.494.007-3.742.005-.387.037-.785.144-1.152a3 3 0 012.87-2.167 5080.36 5080.36 0 0116.536-.002c.91 0 1.654.404 2.308 1.074.812-.936 1.863-1.094 3.013-1.088 5.154.022 10.308.008 15.462.01 2.098 0 3.362 1.269 3.364 3.376v3.69c1.216-.01 2.519-.391 3.125 1.128v.974c-.093.77-.202 1.54-.276 2.31-.362 3.736-.712 7.473-1.073 11.208-.127 1.32-.856 2.061-2.16 2.224-.08.01-.158.028-.28.047.174 1.23.346 2.45.52 3.668.041.288.096.575.128.866.057.512-.211.867-.725.898-.519.03-1.04.018-1.56.003-.388-.014-.596-.258-.742-.606-.618-1.465-1.265-2.917-1.87-4.389-.154-.376-.352-.49-.751-.49-9.398.013-18.796.01-28.194.01-.211 0-.425.004-.632-.025-.376-.055-.582-.312-.598-.668-.018-.379.182-.658.574-.732.22-.042.452-.036.68-.036 10.958-.001 21.917-.001 32.876-.006.257 0 .578.043.757-.088.231-.17.466-.48.497-.755.25-2.227.455-4.46.67-6.692.224-2.327.445-4.656.665-6.986.012-.126.002-.253.002-.422-.402 0-.79-.033-1.172.009-.421.044-.653.339-.728.746-.43 2.348-.858 4.694-1.275 7.045-.048.27-.015.55-.023.827-.033 1.293-.949 2.256-2.238 2.294-1.137.035-2.276.014-3.414.017-4.243 0-8.487-.006-12.731.003-.688.001-1.327-.103-1.911-.627-.688.715-1.583.624-2.46.624-5.072 0-10.145-.006-15.218.003-.69 0-1.325-.12-1.849-.603-.437-.402-.663-.91-.747-1.492-.24-1.65-.477-3.305-.739-4.952-.157-.995-.36-1.98-.539-2.972-.129-.716-.38-.93-1.12-.936-.257-.002-.514 0-.834 0 .067.735.13 1.423.195 2.109.38 3.98.76 7.958 1.146 11.936.067.686.322.91 1.01.912 1.724.007 3.447.002 5.171.007.194 0 .447-.037.567.065.21.18.426.438.48.697.068.33-.177.575-.516.662a.991.991 0 01-.434.03c-.681-.144-.956.209-1.186.797-.533 1.36-1.151 2.688-1.706 4.034-.197.482-.509.683-1.01.661-.357-.014-.715.002-1.073-.001-.784-.01-1.05-.338-.936-1.104.21-1.427.409-2.858.618-4.328-.154-.027-.29-.058-.427-.074-1.097-.142-1.896-.954-2.003-2.064C.934 18.368.512 13.921.086 9.471.076 9.362.029 9.26 0 9.151v-.974zm44.364 4.79c.044-.136.082-.226.101-.32.613-2.941 1.129-5.894.901-8.92-.01-.128 0-.26-.001-.389-.003-1.273-.615-1.892-1.877-1.892h-15.9c-1.266 0-1.876.61-1.877 1.888-.004 2.666-.003 5.332 0 7.997 0 .92.237 1.155 1.155 1.155 3.934 0 7.868 0 11.803.003.193 0 .394-.001.578.047.359.094.553.36.53.721-.022.378-.241.635-.64.68-.177.021-.357.012-.536.012l-11.753.001c-.866 0-1.132.268-1.138 1.138-.003.436 0 .877 0 1.314 0 1.47.087 1.56 1.535 1.56h11.364c1.333 0 2.666.002 3.999 0 .945 0 1.193-.245 1.194-1.172 0-.421-.02-.846.004-1.267.078-1.35-.268-1.668-1.538-1.584-.503.035-.803-.276-.806-.71-.002-.428.297-.717.795-.74.736-.032 1.464-.008 2.107.477zm-38.837-.18c.687-.108 1.314-.284 1.943-.287 5.2-.024 10.4-.014 15.601-.014.939 0 1.172-.234 1.173-1.185.002-1.156 0-2.309 0-3.462 0-1.56.011-3.122-.004-4.682-.01-1.017-.652-1.704-1.61-1.706-5.477-.009-10.954-.009-16.43.001-.917.001-1.606.691-1.604 1.614.005 2.458-.182 4.926.477 7.35.223.82.324 1.675.454 2.37zm9.645 1.162c-2.65 0-5.302-.002-7.952.002-.771 0-1.063.297-1.067 1.062-.004.65-.006 1.302 0 1.95.007.685.296.994.976.995 5.382.009 10.764.009 16.147 0 .663-.001.95-.292.965-.953.014-.632.006-1.267.003-1.903-.004-.895-.264-1.152-1.17-1.152l-7.902-.001zM4.714 28.872l.208.068 1.73-4.01H5.273l-.56 3.942zm38.584-3.948l1.736 4.019c.069-.022.137-.043.205-.068l-.56-3.951h-1.381zm-4.224-18.01a.72.72 0 01-.74-.685.723.723 0 01.7-.771c.4-.012.757.338.754.734a.744.744 0 01-.714.721zm-6.317-.736a.738.738 0 01-.701.732.714.714 0 01-.753-.716.724.724 0 01.687-.737.754.754 0 01.767.72zm-21.83-.72c.407.013.72.362.695.778a.71.71 0 01-.742.674.742.742 0 01-.71-.724c0-.399.358-.744.757-.729zm7.737.718a.715.715 0 01-.688.734.729.729 0 01-.761-.716.737.737 0 01.743-.737.73.73 0 01.706.72z"/></svg>