<svg xmlns="http://www.w3.org/2000/svg" width="40" height="41"><path d="M0 17.419c.1-.677.176-1.355.305-2.026.685-3.565 2.43-6.551 5.01-9.07.361-.353.823-.346 1.14-.017.317.332.305.768-.072 1.14-1.207 1.193-2.241 2.51-3.044 4.01-2.834 5.286-2.245 11.632 1.525 16.31 2.953 3.663 6.81 5.799 11.4 6.625 4.746.854 9.273.158 13.49-2.203 3.719-2.086 6.454-5.082 7.775-9.184 1.61-4.996.689-9.617-2.49-13.746-2.832-3.68-6.658-5.818-11.183-6.698-4.548-.883-8.923-.318-13.074 1.773-.692.35-1.34.789-2.01 1.178-.39.226-.794.159-1.048-.16a.753.753 0 01.033-.996c.069-.075.156-.136.241-.194C11.085 2.107 14.486.974 18.176.684c.166-.013.331-.045.497-.071h2.49c.41.05.819.1 1.229.146 4.33.483 8.18 2.088 11.47 4.963 2.883 2.52 4.819 5.63 5.623 9.4.156.73.235 1.478.35 2.22v6.302a49.74 49.74 0 00-.072.373c-.202 1.065-.312 2.158-.622 3.194-1.4 4.67-4.41 8.044-8.569 10.467-.616.36-1.066.309-1.32-.124-.265-.453-.077-.864.566-1.231 2.27-1.303 4.194-2.99 5.703-5.134a14.96 14.96 0 002.2-4.623c-4.164 6.516-10.2 9.678-17.78 9.684-7.6.007-13.653-3.156-17.8-9.638 0-.01-.01.018-.004.04a14.73 14.73 0 002.886 5.454c3.73 4.43 8.586 6.53 14.3 6.772 2.536.108 5.007-.306 7.406-1.144.508-.176.925.014 1.08.454.152.43-.066.867-.582 1.01-1.195.334-2.393.667-3.605.926-.806.174-1.639.221-2.46.325h-2.49c-.409-.049-.818-.1-1.228-.148-4.285-.484-8.11-2.057-11.381-4.889-2.928-2.533-4.9-5.66-5.712-9.472-.156-.733-.236-1.48-.351-2.219v-6.303zm19.522 14.974c-2.696-.127-5.264-.719-7.666-1.953-.236-.123-.45-.385-.558-.635-.118-.273.03-.56.282-.747.28-.207.571-.165.882-.044 1.133.434 2.243.983 3.415 1.259 5.078 1.199 9.792.372 13.954-2.868 2.36-1.839 3.912-4.236 4.405-7.23.519-3.146-.315-5.953-2.224-8.469-.845-1.113-1.868-2.047-3.015-2.844-.288-.2-.453-.46-.39-.823.056-.329.255-.567.573-.609.21-.027.486.014.654.133 3.92 2.792 6.241 6.476 6.087 11.416-.109 3.472-1.618 6.366-4.097 8.752-2.7 2.598-5.974 4.007-9.668 4.468-.872.107-1.756.13-2.634.194zm-.385-14.498c1.291.69 2.061 1.712 2.298 3.13.375 2.244-1.418 4.536-3.698 4.628-1.553.064-3.11.025-4.665.017-.512-.004-.781-.33-.782-.904-.002-2.061 0-4.122 0-6.183v-6.686c0-.699.262-.966.962-.968 1.05-.004 2.101-.029 3.149.02 1.7.076 2.931.927 3.587 2.483.648 1.542.38 2.993-.703 4.28l-.148.183zM13.859 24.1h3.905c.05 0 .102-.02.152-.033 1.294-.289 2.13-1.44 1.995-2.747-.13-1.256-1.19-2.215-2.517-2.238-1.1-.021-2.2-.006-3.301-.003-.074 0-.148.022-.234.036V24.1zm.007-11.563v4.973c.858 0 1.697.026 2.534-.007 1.23-.048 2.25-1.039 2.35-2.231.11-1.315-.704-2.537-1.971-2.71-.948-.128-1.928-.025-2.913-.025zm6.065-7.997a18.39 18.39 0 016.752 1.31c.361.143.645.343.678.762.046.59-.522.941-1.14.741-.921-.3-1.832-.673-2.778-.854-5.357-1.03-10.214 0-14.297 3.763-2.415 2.227-3.738 5.014-3.689 8.346.05 3.437 1.595 6.183 4.105 8.443.125.112.26.214.38.334.32.316.346.765.07 1.082-.276.316-.753.38-1.08.076-.708-.664-1.442-1.314-2.058-2.059-1.99-2.398-3.05-5.156-2.975-8.3.08-3.294 1.347-6.117 3.603-8.486 2.874-3.02 6.45-4.61 10.567-5.04.618-.066 1.241-.08 1.862-.118zm5.342 11.718c.984-.73 2.009-.97 3.119-.876.475.042.793.388.768.81a.776.776 0 01-.843.736c-2.022-.156-2.96 1.091-3.02 2.96-.05 1.594-.013 3.19-.018 4.783-.002.545-.258.876-.694.92-.45.045-.819-.252-.854-.705-.018-.233-.007-.469-.007-.7 0-2.738-.002-5.47.005-8.208 0-.2.028-.423.118-.596.158-.302.453-.427.79-.36.372.072.584.323.633.696.02.15.003.307.003.54z"/></svg>