<svg xmlns="http://www.w3.org/2000/svg" width="30" height="27"><path fill="#686db1" d="M18.948 7.08c-.167 1.448-1.658 2.584-3.396 2.584-.944 0-1.796-.35-2.339-.96a2.262 2.262 0 01-.569-1.782c.168-1.427 1.681-2.584 3.375-2.584.948 0 1.808.356 2.36.978a2.24 2.24 0 01.569 1.765zm-1.59-.855c-.289-.322-.79-.517-1.339-.517-.988 0-1.93.64-2.016 1.373a.88.88 0 00.23.71c.28.314.773.503 1.32.503 1.018 0 1.951-.628 2.037-1.372a.882.882 0 00-.233-.697zm.745 14.065c.087.15.2.462-.01.854-.432.845-1.854 1.731-3.276 1.731-.06 0-1.586.06-2.589-1.16-.623-.76-.826-1.809-.62-3.01l.001-.008c.069-.378.59-3.034.625-3.202.374-1.863-.02-2.143-.188-2.262a1.098 1.098 0 01-.36-.374c-.083-.151-.188-.466.031-.852.474-.871 2.021-1.755 3.5-1.638 1 .08 1.845.516 2.379 1.221.59.784.778 1.828.542 3.023l-.002.008a459.42 459.42 0 01-.56 2.63l-.091.425c-.323 1.867.077 2.136.248 2.25.111.075.263.177.37.364zm-1.598-7.874c-.299-.396-.782-.631-1.396-.68-.422-.032-.927.075-1.386.298a2.607 2.607 0 00-.562.356c.484.503.813 1.386.413 3.375l-.001.007a574.1 574.1 0 00-.618 3.168c-.137.805-.019 1.467.342 1.918.309.39.798.613 1.414.646.422.022.924-.1 1.377-.334.23-.12.417-.25.553-.373-.498-.488-.85-1.363-.502-3.365l.001-.006.1-.465c.114-.53.326-1.516.557-2.617.158-.799.057-1.465-.292-1.928zm11.323 13.535a.686.686 0 01-.897.83l-4.964-1.864a15.263 15.263 0 01-6.78 1.572c-3.791 0-7.36-1.352-10.046-3.803C2.436 20.22.946 16.933.946 13.432c0-3.5 1.49-6.786 4.195-9.254C7.828 1.726 11.396.376 15.188.376c3.792 0 7.36 1.35 10.047 3.802 2.705 2.468 4.194 5.755 4.194 9.254 0 2.855-1.032 5.652-2.914 7.914zm-1.688-.93l-1.04-3.652a.687.687 0 01.144-.642c1.843-2.092 2.818-4.613 2.818-7.295 0-6.442-5.776-11.685-12.874-11.685-7.1 0-12.875 5.243-12.875 11.685 0 6.445 5.776 11.685 12.875 11.685a13.89 13.89 0 006.42-1.555.681.681 0 01.557-.034z"/></svg>