<svg xmlns="http://www.w3.org/2000/svg" width="201" height="55"><path fill="#171717" d="M105.848 45.418h-9.282v-.133c1.147-.298 1.914-.76 2.3-1.39.386-.628.579-1.659.579-3.094V26.505L86.77 42.737c.11.75.37 1.302.778 1.656.408.353 1.086.65 2.035.892v.133h-9.282v-.133c1.147-.298 1.914-.76 2.3-1.39.386-.628.579-1.659.579-3.094V26.638c0-1.423-.193-2.45-.58-3.077-.385-.63-1.152-1.093-2.3-1.391v-.133h9.283v.133c-1.147.298-1.914.761-2.3 1.39-.386.628-.579 1.655-.579 3.078v14.097l12.609-16.166c-.133-.672-.397-1.18-.795-1.522-.397-.342-1.048-.634-1.952-.877v-.133h9.282v.133c-1.147.298-1.914.761-2.3 1.39-.386.628-.579 1.655-.579 3.078V40.8c0 1.424.193 2.455.58 3.095.385.64 1.152 1.102 2.3 1.39zm8.144-1.405c1.333.694 2.472 1.04 3.42 1.04 1.761 0 3.259-.78 4.492-2.344 1.234-1.563 1.85-3.5 1.85-5.811 0-2.312-.583-4.123-1.75-5.433-1.157-1.298-2.5-1.948-4.03-1.948-1.532 0-2.859.346-3.982 1.04zm2.797 9.198h-8.72v-.133c.964-.296 1.616-.758 1.955-1.386.34-.628.51-1.652.51-3.072V34.04c0-1.497-.17-2.532-.51-3.105-.34-.571-1.13-1.073-2.37-1.502v-.137c2.306-.204 4.374-.726 6.205-1.565h.133v2.349c.54-.552 1.35-1.082 2.428-1.588a8.064 8.064 0 013.47-.76c2.048 0 3.792.753 5.23 2.26 1.44 1.506 2.159 3.489 2.159 5.949 0 1.594-.329 3.044-.986 4.352-.657 1.308-1.5 2.347-2.529 3.115-2.124 1.605-4.303 2.414-6.536 2.425-1.238 0-2.316-.072-3.236-.216v2.996c0 1.445.187 2.475.56 3.093.372.619 1.118 1.075 2.237 1.373zm24.318-7.793h-8.29v-.133c.982-.298 1.638-.761 1.97-1.39.33-.63.496-1.663.496-3.098V29.07h-.91c-1.115 0-1.947.22-2.499.662-.551.442-1.379 1.442-2.482 2.999h-.132l.33-4.587h14.744l.33 4.587h-.132c-1.103-1.557-1.93-2.557-2.482-2.999-.551-.441-1.384-.662-2.498-.662h-.91v11.727c0 1.424.17 2.457.513 3.098.341.64.992 1.103 1.952 1.39zm15.728-2.3v-6.271c-.843-.177-1.548-.27-2.114-.282-1.248.011-2.236.348-2.965 1.01-.728.662-1.093 1.555-1.093 2.681 0 1.125.33 1.991.988 2.597.637.629 1.466.944 2.487.944 1.021 0 1.92-.227 2.697-.68zm-8.258 1.488c-.848-.804-1.273-1.879-1.273-3.225s.748-2.564 2.243-3.653c1.495-1.09 3.924-1.787 7.288-2.089V33.68c0-1.438-.333-2.602-.999-3.49-.666-.89-1.642-1.33-2.93-1.319a5.2 5.2 0 00-1.97.35c-.635.242-1.089.476-1.362.696 1.178.322 1.768.969 1.768 1.943 0 .52-.173.936-.518 1.246-.346.31-.763.465-1.25.465a1.67 1.67 0 01-1.253-.546c-.347-.354-.515-.762-.504-1.224 0-1.016.78-1.947 2.337-2.797 1.546-.849 3.119-1.274 4.716-1.274 1.598 0 2.885.406 3.86 1.216.976.81 1.464 1.966 1.464 3.466v9.035c0 1.345.309 2.178.927 2.499.617.309 1.417.496 2.399.563v.13c-.364.157-1.02.381-1.97.68-.948.286-1.727.43-2.337.43-.61 0-1.147-.199-1.613-.596-.466-.397-.71-.987-.732-1.77-1.886 1.62-3.533 2.432-4.94 2.432-1.407 0-2.524-.403-3.35-1.208zm34.708.812h-3.524c-1.269 0-2.157-.204-2.664-.613-.508-.407-.987-1.29-1.44-2.646l-.264-.845c-.651-2.03-1.252-3.342-1.804-3.938-.552-.596-1.434-.898-2.647-.91h-.298V40.8c0 1.424.17 2.455.513 3.095.342.64.998 1.102 1.969 1.39v.132h-8.306v-.133c.97-.298 1.626-.76 1.968-1.39.342-.628.508-1.659.497-3.094v-8.058c0-1.422-.166-2.449-.497-3.077-.342-.629-.998-1.093-1.968-1.39v-.132h8.306v.131c-.971.296-1.627.755-1.97 1.379-.341.623-.512 1.639-.512 3.05v2.985h1.059c1.853 0 3.215-1.34 4.087-4.02.849-2.627 2.167-3.939 3.954-3.939.916 0 1.6.238 2.052.71.452.476.678 1 .678 1.574 0 .572-.187 1.047-.562 1.422-.364.376-.888.563-1.572.563s-1.203-.303-1.555-.908c-.354-.605-.31-1.367.132-2.286-.816 0-1.655 1.297-2.515 3.89-.496 1.527-1.263 2.548-2.3 3.066v.13c.97.067 1.804.386 2.499.957.694.571 1.362 1.527 2.002 2.867l.777 1.649c.728 1.537 1.302 2.537 1.721 2.998.42.462 1.147.77 2.184.923zm10.518-2.3v-6.271c-.844-.177-1.548-.27-2.114-.282-1.248.011-2.237.348-2.965 1.01-.729.662-1.093 1.555-1.093 2.681 0 1.125.33 1.991.988 2.597.637.629 1.466.944 2.487.944 1.02 0 1.92-.227 2.697-.68zm-8.258 1.488c-.849-.804-1.273-1.879-1.273-3.225s.747-2.564 2.243-3.653c1.494-1.09 3.924-1.787 7.288-2.089V33.68c0-1.438-.333-2.602-1-3.49-.665-.89-1.642-1.33-2.929-1.319a5.2 5.2 0 00-1.97.35c-.635.242-1.089.476-1.363.696 1.179.322 1.768.969 1.768 1.943 0 .52-.172.936-.518 1.246-.345.31-.762.465-1.25.465s-.905-.182-1.252-.546c-.347-.354-.515-.762-.504-1.224 0-1.016.779-1.947 2.336-2.797 1.547-.849 3.12-1.274 4.717-1.274 1.598 0 2.884.406 3.86 1.216.976.81 1.464 1.966 1.464 3.466v9.035c0 1.345.308 2.178.926 2.499.618.309 1.417.496 2.4.563v.13c-.365.157-1.021.381-1.97.68-.948.286-1.728.43-2.338.43-.61 0-1.147-.199-1.613-.596-.465-.397-.709-.987-.731-1.77-1.887 1.62-3.533 2.432-4.94 2.432-1.407 0-2.524-.403-3.351-1.208z"/><path fill="#ffc97b" d="M50.638.885c12.76 0 23.104 10.344 23.104 23.106 0 12.76-10.344 23.103-23.104 23.103S27.533 36.751 27.533 23.991C27.533 11.23 37.877.885 50.638.885z"/><path fill="#171717" d="M10.806 48.951c-.292 1.128-.553 2.244-.872 3.342-.54 1.856-2.552 2.68-4.172 1.732-1.104-.646-1.616-1.87-1.312-3.178.478-2.057.958-4.116 1.462-6.167.08-.327.028-.512-.22-.739-1.436-1.316-2.173-2.956-2.177-4.912-.005-2.363-.009-4.725.005-7.088.003-.385-.077-.614-.462-.807a5.548 5.548 0 01-2.95-6.025 5.526 5.526 0 014.94-4.452c.495-.044.635-.215.678-.69.45-5.02 4.527-8.776 9.56-8.784 10.359-.014 20.718-.012 31.078-.002 5.246.004 9.338 3.841 9.728 9.096.007.1.02.203.034.321.494.057.985.072 1.458.173 2.344.485 4.09 2.338 4.403 4.643.314 2.315-.865 4.618-2.964 5.687-.396.202-.512.421-.51.84.018 2.3-.004 4.602.013 6.902.015 2.048-.667 3.786-2.233 5.125-.314.27-.23.525-.16.816.463 1.892.959 3.78 1.376 5.681.132.604.175 1.278.053 1.875-.256 1.254-1.365 2.084-2.618 2.113-1.287.031-2.44-.754-2.807-1.978-.283-.942-.525-1.9-.727-2.861-.109-.514-.326-.678-.86-.678-5.724.024-11.447.015-17.17.015H10.805zm40.089-15.15v-.73c.011-2.403.039-4.808.03-7.212-.008-1.98.912-3.404 2.552-4.405 1.037-.636 1.065-.659.862-1.856a9.582 9.582 0 00-.152-.722c-.917-3.619-4.016-6.005-7.87-6.007-10.297-.01-20.593-.005-30.89-.003-.245 0-.491.01-.737.025-3.9.215-7.182 3.56-7.344 7.468-.017.392.07.614.454.802 2.23 1.092 3.303 2.9 3.283 5.383-.017 2.158-.003 4.316-.003 6.472v.798c1.475-1.452 3.105-2.117 4.993-2.12 3.056-.01 6.112-.022 9.168.002 2.289.016 4.107.984 5.448 2.845.09.127.194.239.323.396 1.591-2.497 3.892-3.352 6.705-3.266 2.644.083 5.292.008 7.937.026.612.004 1.23.064 1.833.17 1.288.228 2.357.9 3.408 1.934zm-19.91 10.136c6.791 0 13.583-.05 20.372.022 3.346.035 5.523-2.43 5.397-5.37-.106-2.46-.023-4.928-.022-7.395 0-.94.083-1.056.975-1.379 1.506-.548 2.521-1.9 2.575-3.431.077-2.154-1.598-3.945-3.736-3.995-2.235-.05-3.993 1.628-3.998 3.848-.008 4.068-.002 8.138-.003 12.206 0 1.025-.204 1.235-1.21 1.235-13.561.001-27.122.001-40.683 0-1.024 0-1.228-.203-1.229-1.217 0-4.088-.004-8.177.003-12.266.002-.803-.164-1.546-.621-2.215-.945-1.38-2.736-2.016-4.344-1.544-1.578.464-2.716 1.955-2.764 3.625-.047 1.638 1.016 3.153 2.615 3.725.82.294.924.433.924 1.29.002 2.568-.012 5.137.01 7.705.005.567.057 1.156.216 1.7.634 2.151 2.525 3.452 4.968 3.452 6.852.008 13.704.004 20.556.004zm-.9-5.944c.108-2.351-2.09-4.571-4.588-4.604-3.24-.042-6.48-.036-9.72-.002-2.131.024-3.985 1.57-4.493 3.643-.074.302-.098.62-.151.963h18.951zm1.796.033h18.942c.032-2.438-1.975-4.528-4.54-4.585a225.435 225.435 0 00-9.66-.003c-2.656.058-4.483 1.866-4.742 4.588zm18.97 7.673H11.043v1.49H50.85V45.7zm3.58-.467c-.491.126-.935.28-1.392.351-.344.053-.423.205-.433.525-.063 2.049.691 3.936 1.151 5.882.128.54.846.841 1.348.703.565-.157.947-.734.85-1.328-.049-.302-.15-.595-.223-.892-.434-1.744-.866-3.49-1.301-5.241zm-46.84-.089l-.408 1.71c-.348 1.45-.707 2.899-1.041 4.354-.167.728.137 1.293.746 1.48.576.179 1.27-.141 1.409-.765.406-1.827 1.075-3.605.999-5.531-.024-.62-.124-.952-.8-.97-.274-.011-.544-.163-.905-.278zm10.475-20.29a1.23 1.23 0 01-1.198 1.223c-.665.012-1.258-.58-1.251-1.247a1.236 1.236 0 011.275-1.208 1.2 1.2 0 011.174 1.232zm16.48-.013a1.2 1.2 0 011.202-1.219 1.236 1.236 0 011.247 1.191c.018.67-.581 1.276-1.25 1.264-.658-.01-1.2-.569-1.2-1.236zM22.99 19.35a1.218 1.218 0 01-1.217 1.197c-.673-.001-1.251-.595-1.231-1.262.02-.65.584-1.197 1.234-1.195.689 0 1.23.561 1.214 1.26zm18.96.027a1.22 1.22 0 01-1.243 1.17c-.673-.016-1.24-.622-1.203-1.287a1.258 1.258 0 011.258-1.172 1.22 1.22 0 011.189 1.29zm-14.418 5.476a1.253 1.253 0 01-1.206 1.222c-.668.013-1.253-.572-1.247-1.245a1.22 1.22 0 011.268-1.209 1.219 1.219 0 011.185 1.232zm4.96-5.53a1.214 1.214 0 01-1.204 1.226 1.244 1.244 0 01-1.234-1.27 1.238 1.238 0 011.248-1.19 1.207 1.207 0 011.19 1.234zm11.513 5.52a1.193 1.193 0 011.196-1.222 1.224 1.224 0 011.242 1.19c.017.679-.566 1.276-1.24 1.266-.662-.007-1.197-.56-1.198-1.233z"/></svg>