<svg xmlns="http://www.w3.org/2000/svg" width="44" height="41"><path fill="#fff" d="M43.666 12.674c-.265.907-.448 1.853-.815 2.718-.553 1.304-1.53 2.285-2.728 3.035-.398.249-.755.202-.976-.121-.217-.317-.137-.693.258-.948 1.145-.742 2.009-1.715 2.515-2.991.33-.83.475-1.69.437-2.688-.168.153-.28.248-.381.347-1.139 1.14-2.282 2.276-3.409 3.425-.299.305-.595.424-1.026.31a120.387 120.387 0 00-3.478-.852c-.378-.088-.588-.289-.677-.67a259.945 259.945 0 00-.878-3.61c-.091-.367.048-.627.299-.878 1.142-1.134 2.275-2.276 3.415-3.415.11-.11.245-.197.369-.292l-.068-.18c-.618.079-1.25.098-1.851.249-3.07.76-5.037 3.8-4.52 6.936.079.47-.008.842-.37 1.192-1.056 1.017-2.08 2.068-3.074 3.063 1.427 1.435 2.84 2.852 4.282 4.3.443-.446.953-.96 1.463-1.471.402-.405.843-.777 1.2-1.219.55-.681 1.176-.957 2.048-.707.33.095.708.015 1.063.026.418.015.667.248.678.614.012.38-.244.655-.672.668-.454.013-.914.022-1.363-.034-.3-.037-.5.018-.712.235-.935.958-1.888 1.897-2.864 2.874.134.14.247.264.364.38 3.34 3.348 6.685 6.696 10.023 10.047 1.524 1.532 1.837 3.7.803 5.443-1.382 2.332-4.597 2.841-6.661 1.053-.172-.149-.334-.31-.495-.47-3.282-3.288-6.563-6.576-9.844-9.866-.11-.109-.209-.232-.349-.389-.15.142-.27.253-.386.369-3.493 3.499-6.986 6.998-10.477 10.5-1.32 1.322-2.87 1.718-4.651 1.162-2.343-.733-3.594-3.725-2.457-5.907.22-.427.497-.837.817-1.191.572-.633 1.191-1.227 1.803-1.824.326-.318.72-.322.981-.044.255.271.242.634-.066.953-.565.582-1.155 1.143-1.716 1.729-1.7 1.78-1 4.506 1.32 5.129 1.108.295 2.102.005 2.904-.795 3.634-3.62 7.25-7.258 10.873-10.89.03-.03.047-.07.084-.124l-.567-.558-1.394 1.4c-1.086 1.09-2.171 2.18-3.26 3.269-.864.862-1.726.858-2.596-.008-.202-.202-.406-.4-.604-.605-.743-.773-.749-1.658 0-2.42.97-.985 1.95-1.958 2.928-2.935.594-.594 1.193-1.184 1.813-1.796l-.645-.533c-.042.039-.153.138-.258.244l-6.433 6.444c-.11.11-.221.225-.35.312-.288.189-.577.157-.812-.087-.222-.23-.256-.51-.072-.784.094-.138.219-.26.34-.38a4792.46 4792.46 0 016.373-6.382c.11-.11.249-.19.52-.395-.262-.178-.447-.268-.582-.404-.373-.38-.536-.822-.382-1.367.032-.114-.027-.303-.113-.392-.608-.64-1.235-1.263-1.97-2.005-.28.331-.527.658-.81.95-.366.376-.634.4-1.052.09-.425-.314-.884-.392-1.373-.244-1.009.302-1.658.971-1.904 1.998-.103.43-.02.84.25 1.217.345.48.322.706-.088 1.12a575.727 575.727 0 01-3.14 3.146c-.401.399-.708.41-1.105.013-2.4-2.394-4.796-4.794-7.188-7.199-.39-.392-.387-.716.005-1.112a433.806 433.806 0 013.17-3.178c.38-.375.622-.404 1.053-.085.514.38 1.056.403 1.615.177.905-.367 1.524-1.019 1.657-2.005.047-.348-.06-.767-.229-1.083-.321-.6-.342-.769.153-1.266a11401.9 11401.9 0 015.525-5.537c1.03-1.032 1.881-1.112 3.136-.236.358-.375.726-.765 1.098-1.152 1.706-1.767 3.751-2.892 6.19-3.26 2.346-.35 4.56.06 6.617 1.24.199.116.42.427.402.625-.02.225-.253.52-.471.627-2.176 1.048-4.09 2.467-5.842 4.114-1.007.947-1.943 1.958-2.7 3.116 1.001 1.166.836 2.145.019 3.115.648.65 1.297 1.304 1.954 1.95.058.058.184.106.252.081.705-.25 1.21.07 1.662.56.057.063.122.118.283.27.283-.323.547-.656.842-.96a45.58 45.58 0 011.816-1.81c.311-.287.417-.572.38-1-.22-2.582.656-4.745 2.64-6.402 1.93-1.616 4.164-2.071 6.605-1.508.613.14.766.703.316 1.168-.764.787-1.547 1.557-2.322 2.334-.664.665-1.337 1.321-1.984 2.003a.656.656 0 00-.148.504c.182.863.391 1.723.617 2.574.035.131.187.294.314.327.866.23 1.736.442 2.612.624.15.032.38-.062.497-.178 1.37-1.35 2.724-2.715 4.082-4.079.08-.081.158-.164.243-.24.454-.407.99-.25 1.136.34.096.385.164.78.244 1.168v1.284zm-23.642 8.638c.056.061.14.155.23.245 5.534 5.548 11.069 11.095 16.605 16.641.15.15.312.293.478.427 1.665 1.348 4.193.596 4.826-1.45.394-1.271.026-2.349-.897-3.272C35.7 28.329 30.135 22.75 24.57 17.173c-.079-.079-.164-.152-.216-.2l-4.329 4.34zM8.981 11.52c2.165 2.172 4.293 4.304 6.434 6.45.004-.004.047-.016.075-.045 1.751-1.752 3.504-3.502 5.248-5.261.376-.378.35-.742-.057-1.152a2060.44 2060.44 0 00-5.216-5.232c-.453-.456-.792-.454-1.242-.009-.577.572-1.147 1.148-1.72 1.722L8.98 11.52zm11.697-1.958c2.098-2.816 4.735-5.073 7.795-6.853-.045-.047-.06-.075-.084-.086-.05-.026-.105-.043-.158-.062-1.863-.682-3.743-.715-5.65-.186-2.236.62-3.857 2.104-5.33 3.74a8126.56 8126.56 0 013.427 3.447zM4.005 16.64l-2.337 2.34 6.3 6.312 2.346-2.34-6.309-6.312zm6.223 4.263c.677-1.784 1.212-2.295 3.016-2.95l-4.236-4.24c-.353 1.527-1.368 2.55-2.928 3.036l4.148 4.154zm11.65 4.22c-.28.292-.561.594-.852.886-1.255 1.261-2.51 2.524-3.775 3.777-.261.258-.285.462-.002.706.194.166.364.359.546.541.362.359.417.359.788-.011 1.207-1.21 2.412-2.423 3.622-3.629.33-.33.678-.641.992-.94-.462-.464-.869-.876-1.319-1.33zm.804-8.458l-1.962-1.96c-.992.975-2.009 1.975-2.97 2.922l1.987 1.994c.962-.967 1.956-1.965 2.945-2.956z"/></svg>