<svg xmlns="http://www.w3.org/2000/svg" width="27" height="27"><path fill="#171717" d="M9.098 12.733H12.2V9.63a1.034 1.034 0 012.067 0v3.102h3.102a1.035 1.035 0 010 2.068h-3.102v3.102a1.035 1.035 0 11-2.067 0V14.8H9.098a1.033 1.033 0 110-2.068zM6.941 3.17a1.034 1.034 0 01.56-1.352l1.337-.554a1.035 1.035 0 01.791 1.91l-1.337.553a1.035 1.035 0 01-1.351-.557zm19.526 10.597c0 7.314-5.92 13.233-13.234 13.233S0 21.081 0 13.768a1.035 1.035 0 112.068 0 11.158 11.158 0 0011.165 11.165A11.159 11.159 0 0024.4 13.768C24.4 7.598 19.404 2.6 13.233 2.6a1.033 1.033 0 110-2.067c7.315 0 13.234 5.92 13.234 13.234zM3.364 6.384a1.033 1.033 0 010-1.46l1.024-1.026A1.034 1.034 0 015.85 5.361L4.826 6.384a1.035 1.035 0 01-1.462 0zM.73 9.373l.554-1.34a1.034 1.034 0 111.91.792l-.553 1.339a1.034 1.034 0 01-1.91-.79z" opacity=".3"/></svg>